<?xml version="1.0" encoding="UTF-8" standalone="no"?>
<!-- Generator: Adobe Illustrator 22.0.1, SVG Export Plug-In . SVG Version: 6.00 Build 0)  -->

<svg
   xmlns:dc="http://purl.org/dc/elements/1.1/"
   xmlns:cc="http://creativecommons.org/ns#"
   xmlns:rdf="http://www.w3.org/1999/02/22-rdf-syntax-ns#"
   xmlns:svg="http://www.w3.org/2000/svg"
   xmlns="http://www.w3.org/2000/svg"
   xmlns:sodipodi="http://sodipodi.sourceforge.net/DTD/sodipodi-0.dtd"
   xmlns:inkscape="http://www.inkscape.org/namespaces/inkscape"
   version="1.1"
   id="Layer_1"
   x="0px"
   y="0px"
   viewBox="0 0 129.31199 28.800001"
   xml:space="preserve"
   sodipodi:docname="aula-logo-login.svg"
   width="129.312"
   height="28.800001"
   inkscape:version="0.92.3 (2405546, 2018-03-11)"><metadata
   id="metadata27"><rdf:RDF><cc:Work
       rdf:about=""><dc:format>image/svg+xml</dc:format><dc:type
         rdf:resource="http://purl.org/dc/dcmitype/StillImage" /><dc:title></dc:title></cc:Work></rdf:RDF></metadata><defs
   id="defs25" /><sodipodi:namedview
   pagecolor="#ffffff"
   bordercolor="#666666"
   borderopacity="1"
   objecttolerance="10"
   gridtolerance="10"
   guidetolerance="10"
   inkscape:pageopacity="0"
   inkscape:pageshadow="2"
   inkscape:window-width="3840"
   inkscape:window-height="2047"
   id="namedview23"
   showgrid="false"
   scale-x="1"
   fit-margin-top="0"
   fit-margin-left="0"
   fit-margin-right="0"
   fit-margin-bottom="0"
   inkscape:zoom="15.863405"
   inkscape:cx="54.142103"
   inkscape:cy="10.89674"
   inkscape:window-x="0"
   inkscape:window-y="0"
   inkscape:window-maximized="1"
   inkscape:current-layer="Layer_1" />
<style
   type="text/css"
   id="style2">
	.st0{fill:#630FA0;}
	.st1{fill:#7A1BBE;}
	.st2{fill:#00AFAA;}
	.st3{fill:#00E0B7;}
	.st4{fill:#B3C4E5;}
	.st5{fill:#A6B4CC;}
</style>
<g
   id="g20"
   transform="matrix(0.144,0,0,0.144,-7.344,-7.3583998)">
	<path
   class="st0"
   d="m 51,151.1 v 100 h 100 v -200 c -55.3,0 -100,44.8 -100,100 z"
   id="path4"
   inkscape:connector-curvature="0"
   style="fill:#630fa0" />
	<path
   class="st1"
   d="m 250.9,151.1 v 100 h -100 v -200 c 55.2,0 100,44.8 100,100 z"
   id="path6"
   inkscape:connector-curvature="0"
   style="fill:#7a1bbe" />
	<path
   class="st2"
   d="m 483.6,151.1 v -100 h -100 V 251 c 55.2,0 100,-44.7 100,-99.9 z"
   id="path8"
   inkscape:connector-curvature="0"
   style="fill:#00afaa" />
	<path
   class="st3"
   d="m 283.6,151.1 v -100 h 100 V 251 c -55.2,0 -100,-44.7 -100,-99.9 z"
   id="path10"
   inkscape:connector-curvature="0"
   style="fill:#00e0b7" />
	<path
   class="st0"
   d="m 749,151.1 v 100 h 100 v -200 c -55.2,0 -100,44.8 -100,100 z"
   id="path12"
   inkscape:connector-curvature="0"
   style="fill:#630fa0" />
	<path
   class="st1"
   d="m 949,151.1 v 100 H 849 v -200 c 55.2,0 100,44.8 100,100 z"
   id="path14"
   inkscape:connector-curvature="0"
   style="fill:#7a1bbe" />
	<rect
   x="516.29999"
   y="51.099998"
   class="st4"
   width="100"
   height="199.89999"
   id="rect16"
   style="fill:#b3c4e5" />
	<rect
   x="616.29999"
   y="151.10001"
   class="st5"
   width="100"
   height="100"
   id="rect18"
   style="fill:#a6b4cc" />
</g>
</svg>