<svg xmlns="http://www.w3.org/2000/svg" xmlns:xlink="http://www.w3.org/1999/xlink" xmlns:lucid="lucid" width="855.15" height="683.58"><g transform="translate(-60 -60)" lucid:page-tab-id="ofvT9eIxDw_Y"><path d="M0 0h1424.4v1100.67H0z" fill="#fff"/><path d="M121.5 315.38H130v6.56h-8.47v-6.56zM80.56 256.5h89.6v58.88h-89.6V256.5z" fill="#29aae1"/><path d="M84.6 260.1h81.8v52.64H84.6V260.1z" fill="#fff" fill-opacity=".98"/><path d="M84.05 322.34h81.7l-4.06 14.08H80l4.05-14.08z" fill="#29aae1"/><path d="M83.58 321.86h83.57l6.97 14.56H90.54l-6.96-14.56z" fill="#29aae1"/><path d="M111.9 332.66h29.75v2.96H111.9v-2.96zM95.53 324.18h2.16v1.84h-2.17v-1.84zM99.4 324.26h2.25v1.84H99.4v-1.84zM104.38 327.62h2.26v1.84h-2.26v-1.84zM103.62 324.02h2.17v1.92h-2.18v-1.92zM107.4 324.18h2.25v1.84h-2.26v-1.84zM111.06 324.02h2.26v1.92h-2.26v-1.92zM134.12 324.34h2.26v1.92h-2.26v-1.92zM137.5 324.34h2.26v1.92h-2.25v-1.92zM140.7 324.34h2.26v1.92h-2.25v-1.92zM144.56 324.34h2.17v1.92h-2.17v-1.92zM148.05 324.34h2.16v1.92h-2.15v-1.92zM143.9 327.46h2.17v1.84h-2.16v-1.84zM152 324.34h2.26v1.92H152v-1.92zM108.6 327.54h2.18v1.84h-2.17v-1.84zM112.85 327.54H115v1.84h-2.15v-1.84zM140.42 327.38h1.9v1.84h-1.9v-1.84zM136.56 327.38h2.26v1.84h-2.26v-1.84zM115.2 324.1h2.26v1.92h-2.26v-1.92zM119.44 324.18h2.16v1.92h-2.16v-1.92zM123.3 324.1h2.16v1.92h-2.17v-1.92zM127.53 324.1h2.16v1.92h-2.17v-1.92zM131 324.18h2.18v1.92H131v-1.92zM116.6 327.46h2.27v1.84h-2.26v-1.84zM120.85 327.46H123v1.84h-2.15v-1.84zM124.7 327.54h2.26v1.84h-2.25v-1.84zM128.56 327.54h2.17v1.84h-2.17v-1.84zM132.52 327.38h2.16v1.84h-2.16v-1.84z" fill="#fff"/><path d="M80.1 336.42l94.02-.32-6.68-14.24-83.3.16-4.05 14.4z" fill="none"/><path d="M121.04 315.38h9.22v.88h-9.22v-.88zM121.4 320.82h8.76v1.04h-8.75v-1.04z" fill="#fff"/><use xlink:href="#a" transform="matrix(1,0,0,1,50,336.5) translate(38.37291634230481 17.87757918626563)"/><use xlink:href="#b" transform="matrix(1,0,0,1,50,336.5) translate(87.85129179503886 17.87757918626563)"/><path d="M372.64 182.58v-8.4l-8.16-9.75-13.37 32.06 13.38 32.06 8.16-9.75v-8.46l-2.7 2.06v-4.1l2.7-1.55v-8.46l-2.7.05v-3.78l2.7.13v-8.28l-2.7-1.54V182l2.7.58z" fill="#2e73b8"/><path d="M349.9 236.5l14.58-7.92v-64.16l-14.57-7.92-16.48 40.64 16.5 39.36z" fill="#5294cf"/><path d="M329.52 236.5h20.4v-80h-20.4l-10.55 40.64 10.55 39.36z" fill="#2e73b8"/><path d="M329.5 236.5l-14.68-7.92-4.6-31.44 4.6-32.72 14.65-7.92.04 80z" fill="#205b99"/><path d="M369.93 208.34l-5.46 2.9-14.56 3.38h-20.4l-14.24-3.4-.26-.06-.2-.06v-12.06l14.7 1.16h20.41l14.57-1.16 8.2-.77h-2.74v-3.6h2.66l-8.13-.63-14.56-.5h-20.27l-14.82.37v-12.17h.2l14.63-3.8h20.28l14.57 3.8 5.46 3.14v-2l2.73-.25-8.2-6.22-14.55-5.13h-20.27l-14.82 5.33v-12.2l-7.14 9.76v8.46l2.08.26v2.05l-2.08 1.3v8.45h2.08v3.6l-2.08.06v8.4l2.08 1.28v2.12l-2.08.25v8.4l7.15 9.74v-12.18l14.7 4.93h20.41l14.57-4.94 8.2-5.97-2.74-.26v-1.8z" fill="#19486f"/><use xlink:href="#c" transform="matrix(1,0,0,1,307.65730859179104,236.5) translate(-8.12540253704632 11.510316745062529)"/><use xlink:href="#d" transform="matrix(1,0,0,1,307.65730859179104,236.5) translate(3.085166376113534 28.775791862656323)"/><path d="M171.1 296.8l91.5 30.35" stroke="#000" stroke-width="2" fill="none"/><path d="M171.45 295.87l-.63 1.9-.66-.22v-2.1z"/><path d="M277.1 331.95l-15-.1 2.9-8.8z" stroke="#000" stroke-width="2"/><path d="M332.94 629.72h120v61.4h-120v-61.4z" fill="#9d5025"/><path d="M332.94 624.13h120v61.4h-120v-61.4z" fill="#f58536"/><path d="M358.86 627.8h5.65v54.08h-5.64V627.8zM338.03 627.8h5.65v54.08h-5.65V627.8zM348.45 627.8h5.65v54.08h-5.65V627.8zM421.35 627.8H427v54.08h-5.65V627.8zM431.76 627.8h5.65v54.08h-5.64V627.8zM442.18 627.8h5.65v54.08h-5.65V627.8z" fill="#fbbf93"/><path d="M339.5 629.26h4.2v52.62h-4.2v-52.62zM349.92 629.26h4.2v52.62h-4.2v-52.62zM360.34 629.26h4.2v52.62h-4.2v-52.62zM422.82 629.26h4.2v52.62h-4.2v-52.62zM433.24 629.26h4.2v52.62h-4.2v-52.62zM443.65 629.26h4.2v52.62h-4.2v-52.62z" fill="#fff"/><path d="M384.72 641.03h16.45c5.67 0 5.67 0 5.67 5.64v16.37c0 5.64 0 5.64-5.67 5.64h-16.45c-5.66 0-5.66 0-5.66-5.64v-16.37c0-5.64 0-5.64 5.66-5.64z" fill="#d16929"/><path d="M401.14 670.37H384.7c-4.04 0-7.35-3.3-7.35-7.33v-16.38c0-4.03 3.3-7.32 7.36-7.32h16.47c4.05 0 7.36 3.3 7.36 7.32v16.38c0 4.04-3.3 7.33-7.36 7.33h-.03zm-16.43-27.65c-2.17 0-3.95 1.77-3.95 3.94v16.38c0 2.18 1.78 3.94 3.96 3.94h16.47c2.18 0 3.96-1.76 3.96-3.94v-16.38c0-2.17-1.78-3.94-3.96-3.94z" fill="#fff"/><path d="M384.18 642.72c-.94 0-1.7-.76-1.7-1.7v-6.2c0-.92.76-1.68 1.7-1.68.93 0 1.7.76 1.7 1.7v6.2c0 .92-.77 1.68-1.7 1.68zM389.97 642.72c-.94 0-1.7-.76-1.7-1.7v-6.2c0-.92.76-1.68 1.7-1.68s1.7.76 1.7 1.7v6.2c0 .92-.76 1.68-1.7 1.68zM395.74 642.72c-.93 0-1.7-.76-1.7-1.7v-6.2c0-.92.77-1.68 1.7-1.68.94 0 1.7.76 1.7 1.7v6.2c0 .92-.76 1.68-1.7 1.68zM401.54 642.72c-.94 0-1.7-.76-1.7-1.7v-6.2c0-.92.76-1.68 1.7-1.68s1.7.76 1.7 1.7v6.2c0 .92-.76 1.68-1.7 1.68zM384.18 676.56c-.94 0-1.7-.75-1.7-1.68v-6.2c0-.93.76-1.7 1.7-1.7.93 0 1.7.77 1.7 1.7v6.2c0 .93-.77 1.68-1.7 1.68zM389.97 676.56c-.94 0-1.7-.75-1.7-1.68v-6.2c0-.93.76-1.7 1.7-1.7s1.7.77 1.7 1.7v6.2c0 .93-.76 1.68-1.7 1.68zM395.74 676.56c-.93 0-1.7-.75-1.7-1.68v-6.2c0-.93.77-1.7 1.7-1.7.94 0 1.7.77 1.7 1.7v6.2c0 .93-.76 1.68-1.7 1.68zM401.54 676.56c-.94 0-1.7-.75-1.7-1.68v-6.2c0-.93.76-1.7 1.7-1.7s1.7.77 1.7 1.7v6.2c0 .93-.76 1.68-1.7 1.68zM413.06 647.9h-6.25c-.92 0-1.68-.75-1.68-1.7 0-.92.76-1.68 1.7-1.68h6.22c.93 0 1.7.76 1.7 1.7 0 .93-.77 1.68-1.7 1.68zM413.06 653.64h-6.25c-.92 0-1.68-.75-1.68-1.68 0-.94.76-1.7 1.7-1.7h6.22c.93 0 1.7.76 1.7 1.7 0 .93-.77 1.68-1.7 1.68zM413.06 659.4h-6.25c-.92 0-1.68-.74-1.68-1.68 0-.93.76-1.68 1.7-1.68h6.22c.93 0 1.7.75 1.7 1.68 0 .94-.77 1.7-1.7 1.7zM413.06 665.16h-6.25c-.92 0-1.68-.76-1.68-1.7 0-.92.76-1.68 1.7-1.68h6.22c.93 0 1.7.76 1.7 1.7 0 .92-.77 1.68-1.7 1.68zM378.96 647.9h-6.23c-.93 0-1.7-.75-1.7-1.7 0-.92.77-1.68 1.7-1.68h6.23c.93 0 1.7.76 1.7 1.7 0 .93-.77 1.68-1.7 1.68zM378.96 653.64h-6.23c-.93 0-1.7-.75-1.7-1.68 0-.94.77-1.7 1.7-1.7h6.23c.93 0 1.7.76 1.7 1.7 0 .93-.77 1.68-1.7 1.68zM378.96 659.4h-6.23c-.93 0-1.7-.74-1.7-1.68 0-.93.77-1.68 1.7-1.68h6.23c.93 0 1.7.75 1.7 1.68 0 .94-.77 1.7-1.7 1.7zM378.96 665.16h-6.23c-.93 0-1.7-.76-1.7-1.7 0-.92.77-1.68 1.7-1.68h6.23c.93 0 1.7.76 1.7 1.7 0 .92-.77 1.68-1.7 1.68z" fill="#fff"/><path d="M387.33 649.25h11.22v11.18h-11.22v-11.18z" fill="#fbbf93"/><path d="M398.56 661.56h-11.33c-.63 0-1.13-.5-1.13-1.13v-11.27c0-.62.5-1.12 1.13-1.12h11.33c.62 0 1.13.5 1.13 1.12v11.27c0 .63-.52 1.13-1.14 1.13zm-10.1-2.26h9.05v-9h-9.1z" fill="#fff"/><use xlink:href="#e" transform="matrix(1,0,0,1,332.94117647058823,691.1299999999999) translate(25.68886484154104 12.877579186265631)"/><path d="M332.04 667.18l-9.22-4.63-9.1-5.05-8.3-5.06-7.6-5.1-7.04-5.17-6.6-5.28-6.22-5.42-5.92-5.6-5.7-5.87-5.5-6.17-5.4-6.6-5.36-7.12-5.4-7.82-5.52-8.8-5.83-10.22-6.4-12.42-7.7-16.56-12.1-29.43-38.87-98.18-13.88-29.9-13.6-26.32-4.55-7.96" stroke="#000" stroke-width="2" fill="none"/><path d="M332.94 666.5v2.25l-1.37-.7.9-1.78z"/><path d="M128.66 339.23l11.1 10.1-8.05 4.6z" stroke="#000" stroke-width="2"/><path d="M237.48 110c0-16.57 13.44-30 30-30H570c16.57 0 30 13.43 30 30v278.2c0 16.57-13.43 30-30 30H267.48c-16.56 0-30-13.43-30-30z" fill="none"/><path d="M238.48 110c0 .55-.44 1-1 1-.55 0-1-.45-1-1s.45-1 1-1c.56 0 1 .45 1 1zm1.12-7.74c0 .55-.45 1-1 1-.56 0-1-.45-1-1s.44-1 1-1c.55 0 1 .45 1 1zm2.94-7.23c0 .55-.45 1-1 1s-1-.45-1-1c0-.56.45-1 1-1s1 .44 1 1zm4.8-6.18c0 .55-.45 1-1 1-.56 0-1-.45-1-1 0-.56.44-1 1-1 .55 0 1 .44 1 1zm6.18-4.76c0 .54-.44 1-1 1-.55 0-1-.46-1-1 0-.57.45-1 1-1 .56 0 1 .43 1 1zm7.2-3.04c0 .56-.43 1-1 1-.54 0-1-.44-1-1 0-.55.46-1 1-1 .57 0 1 .45 1 1zM268.5 80c0 .55-.44 1-1 1-.55 0-1-.45-1-1s.45-1 1-1c.56 0 1 .45 1 1zm7.96 0c0 .55-.44 1-1 1-.55 0-1-.45-1-1s.45-1 1-1c.56 0 1 .45 1 1zm7.97 0c0 .55-.44 1-1 1-.55 0-1-.45-1-1s.45-1 1-1c.56 0 1 .45 1 1zm7.97 0c0 .55-.45 1-1 1-.56 0-1-.45-1-1s.44-1 1-1c.55 0 1 .45 1 1zm7.96 0c0 .55-.45 1-1 1s-1-.45-1-1 .45-1 1-1 1 .45 1 1zm7.96 0c0 .55-.46 1-1 1-.56 0-1-.45-1-1s.44-1 1-1c.54 0 1 .45 1 1zm7.95 0c0 .55-.45 1-1 1s-1-.45-1-1 .45-1 1-1 1 .45 1 1zm7.96 0c0 .55-.44 1-1 1-.54 0-1-.45-1-1s.46-1 1-1c.56 0 1 .45 1 1zm7.97 0c0 .55-.45 1-1 1s-1-.45-1-1 .45-1 1-1 1 .45 1 1zm7.96 0c0 .55-.45 1-1 1s-1-.45-1-1 .45-1 1-1 1 .45 1 1zm7.96 0c0 .55-.45 1-1 1-.56 0-1-.45-1-1s.44-1 1-1c.55 0 1 .45 1 1zm7.95 0c0 .55-.44 1-1 1-.55 0-1-.45-1-1s.45-1 1-1c.56 0 1 .45 1 1zm7.97 0c0 .55-.45 1-1 1-.56 0-1-.45-1-1s.44-1 1-1c.55 0 1 .45 1 1zm7.96 0c0 .55-.45 1-1 1-.56 0-1-.45-1-1s.44-1 1-1c.55 0 1 .45 1 1zm7.96 0c0 .55-.45 1-1 1-.56 0-1-.45-1-1s.44-1 1-1c.55 0 1 .45 1 1zm7.96 0c0 .55-.45 1-1 1s-1-.45-1-1 .45-1 1-1 1 .45 1 1zm7.96 0c0 .55-.45 1-1 1s-1-.45-1-1 .45-1 1-1 1 .45 1 1zm7.96 0c0 .55-.45 1-1 1s-1-.45-1-1 .45-1 1-1 1 .45 1 1zm7.96 0c0 .55-.45 1-1 1s-1-.45-1-1 .45-1 1-1 1 .45 1 1zm7.96 0c0 .55-.45 1-1 1s-1-.45-1-1 .45-1 1-1 1 .45 1 1zm7.96 0c0 .55-.44 1-1 1-.55 0-1-.45-1-1s.45-1 1-1c.56 0 1 .45 1 1zm7.96 0c0 .55-.44 1-1 1-.55 0-1-.45-1-1s.45-1 1-1c.56 0 1 .45 1 1zm7.96 0c0 .55-.44 1-1 1-.55 0-1-.45-1-1s.45-1 1-1c.56 0 1 .45 1 1zm7.97 0c0 .55-.46 1-1 1-.57 0-1-.45-1-1s.43-1 1-1c.54 0 1 .45 1 1zm7.95 0c0 .55-.45 1-1 1-.56 0-1-.45-1-1s.44-1 1-1c.55 0 1 .45 1 1zm7.96 0c0 .55-.44 1-1 1-.54 0-1-.45-1-1s.46-1 1-1c.56 0 1 .45 1 1zm7.97 0c0 .55-.45 1-1 1s-1-.45-1-1 .45-1 1-1 1 .45 1 1zm7.96 0c0 .55-.45 1-1 1s-1-.45-1-1 .45-1 1-1 1 .45 1 1zm7.96 0c0 .55-.46 1-1 1-.56 0-1-.45-1-1s.44-1 1-1c.54 0 1 .45 1 1zm7.95 0c0 .55-.45 1-1 1s-1-.45-1-1 .45-1 1-1 1 .45 1 1zm7.96 0c0 .55-.44 1-1 1-.54 0-1-.45-1-1s.46-1 1-1c.56 0 1 .45 1 1zm7.97 0c0 .55-.44 1-1 1-.55 0-1-.45-1-1s.45-1 1-1c.56 0 1 .45 1 1zm7.96 0c0 .55-.44 1-1 1-.55 0-1-.45-1-1s.45-1 1-1c.56 0 1 .45 1 1zm7.97 0c0 .55-.45 1-1 1-.56 0-1-.45-1-1s.44-1 1-1c.55 0 1 .45 1 1zm7.96 0c0 .55-.45 1-1 1-.56 0-1-.45-1-1s.44-1 1-1c.55 0 1 .45 1 1zm7.96 0c0 .55-.45 1-1 1-.56 0-1-.45-1-1s.44-1 1-1c.55 0 1 .45 1 1zm7.96 0c0 .55-.45 1-1 1s-1-.45-1-1 .45-1 1-1 1 .45 1 1zm7.96 0c0 .55-.45 1-1 1s-1-.45-1-1 .45-1 1-1 1 .45 1 1zm7.96 0c0 .55-.45 1-1 1s-1-.45-1-1 .45-1 1-1 1 .45 1 1zm7.74 1.1c0 .57-.45 1-1 1s-1-.43-1-1c0-.54.45-1 1-1s1 .46 1 1zm7.23 2.96c0 .55-.44 1-1 1-.55 0-1-.45-1-1s.45-1 1-1c.56 0 1 .45 1 1zm6.18 4.8c0 .54-.44 1-1 1-.55 0-1-.46-1-1 0-.56.45-1 1-1 .56 0 1 .44 1 1zm4.76 6.18c0 .55-.43 1-1 1-.54 0-1-.45-1-1s.46-1 1-1c.57 0 1 .45 1 1zm3.04 7.2c0 .56-.45 1-1 1-.56 0-1-.44-1-1 0-.54.44-1 1-1 .55 0 1 .46 1 1zM601 110c0 .55-.45 1-1 1s-1-.45-1-1 .45-1 1-1 1 .45 1 1zm0 7.95c0 .55-.45 1-1 1s-1-.45-1-1 .45-1 1-1 1 .45 1 1zm0 7.95c0 .55-.45 1-1 1s-1-.45-1-1 .45-1 1-1 1 .45 1 1zm0 7.95c0 .55-.45 1-1 1s-1-.45-1-1c0-.56.45-1 1-1s1 .44 1 1zm0 7.94c0 .55-.45 1-1 1s-1-.45-1-1c0-.56.45-1 1-1s1 .44 1 1zm0 7.94c0 .56-.45 1-1 1s-1-.44-1-1c0-.55.45-1 1-1s1 .45 1 1zm0 7.95c0 .54-.45 1-1 1s-1-.46-1-1c0-.56.45-1 1-1s1 .44 1 1zm0 7.94c0 .55-.45 1-1 1s-1-.45-1-1 .45-1 1-1 1 .45 1 1zm0 7.95c0 .54-.45 1-1 1s-1-.46-1-1c0-.56.45-1 1-1s1 .44 1 1zm0 7.94c0 .55-.45 1-1 1s-1-.45-1-1 .45-1 1-1 1 .45 1 1zm0 7.95c0 .54-.45 1-1 1s-1-.46-1-1c0-.57.45-1 1-1s1 .43 1 1zm0 7.94c0 .55-.45 1-1 1s-1-.45-1-1c0-.56.45-1 1-1s1 .44 1 1zm0 7.94c0 .56-.45 1-1 1s-1-.44-1-1c0-.55.45-1 1-1s1 .45 1 1zm0 7.95c0 .56-.45 1-1 1s-1-.44-1-1c0-.55.45-1 1-1s1 .45 1 1zm0 7.95c0 .55-.45 1-1 1s-1-.45-1-1 .45-1 1-1 1 .45 1 1zm0 7.95c0 .55-.45 1-1 1s-1-.45-1-1 .45-1 1-1 1 .45 1 1zm0 7.95c0 .55-.45 1-1 1s-1-.45-1-1 .45-1 1-1 1 .45 1 1zm0 7.95c0 .55-.45 1-1 1s-1-.45-1-1 .45-1 1-1 1 .45 1 1zm0 7.95c0 .55-.45 1-1 1s-1-.45-1-1c0-.56.45-1 1-1s1 .44 1 1zm0 7.94c0 .56-.45 1-1 1s-1-.44-1-1c0-.55.45-1 1-1s1 .45 1 1zm0 7.95c0 .56-.45 1-1 1s-1-.44-1-1c0-.55.45-1 1-1s1 .45 1 1zm0 7.95c0 .55-.45 1-1 1s-1-.45-1-1 .45-1 1-1 1 .45 1 1zm0 7.95c0 .55-.45 1-1 1s-1-.45-1-1 .45-1 1-1 1 .45 1 1zm0 7.95c0 .55-.45 1-1 1s-1-.45-1-1 .45-1 1-1 1 .45 1 1zm0 7.95c0 .55-.45 1-1 1s-1-.45-1-1 .45-1 1-1 1 .45 1 1zm0 7.95c0 .55-.45 1-1 1s-1-.45-1-1c0-.56.45-1 1-1s1 .44 1 1zm0 7.95c0 .55-.45 1-1 1s-1-.45-1-1c0-.56.45-1 1-1s1 .44 1 1zm0 7.94c0 .57-.45 1-1 1s-1-.43-1-1c0-.54.45-1 1-1s1 .46 1 1zm0 7.96c0 .56-.45 1-1 1s-1-.44-1-1c0-.55.45-1 1-1s1 .45 1 1zm0 7.95c0 .56-.45 1-1 1s-1-.44-1-1c0-.54.45-1 1-1s1 .46 1 1zm0 7.96c0 .55-.45 1-1 1s-1-.45-1-1 .45-1 1-1 1 .45 1 1zm0 7.95c0 .56-.45 1-1 1s-1-.44-1-1c0-.54.45-1 1-1s1 .46 1 1zm0 7.96c0 .55-.45 1-1 1s-1-.45-1-1 .45-1 1-1 1 .45 1 1zm0 7.95c0 .56-.45 1-1 1s-1-.44-1-1c0-.55.45-1 1-1s1 .45 1 1zm0 7.96c0 .55-.45 1-1 1s-1-.45-1-1c0-.56.45-1 1-1s1 .44 1 1zm0 7.94c0 .56-.45 1-1 1s-1-.44-1-1c0-.55.45-1 1-1s1 .45 1 1zm-1.1 7.75c0 .55-.46 1-1 1-.57 0-1-.45-1-1 0-.56.43-1 1-1 .54 0 1 .44 1 1zm-2.96 7.23c0 .55-.45 1-1 1s-1-.45-1-1 .45-1 1-1 1 .45 1 1zm-4.8 6.18c0 .55-.44 1-1 1-.54 0-1-.45-1-1s.46-1 1-1c.56 0 1 .45 1 1zm-6.18 4.76c0 .55-.45 1-1 1s-1-.45-1-1c0-.56.45-1 1-1s1 .44 1 1zm-7.2 3.02c0 .55-.46 1-1 1-.56 0-1-.45-1-1s.44-1 1-1c.54 0 1 .45 1 1zM571 418.2c0 .56-.45 1-1 1s-1-.44-1-1c0-.55.45-1 1-1s1 .45 1 1zm-7.96 0c0 .56-.45 1-1 1s-1-.44-1-1c0-.55.45-1 1-1s1 .45 1 1zm-7.96 0c0 .56-.45 1-1 1s-1-.44-1-1c0-.55.45-1 1-1s1 .45 1 1zm-7.96 0c0 .56-.45 1-1 1-.56 0-1-.44-1-1 0-.55.44-1 1-1 .55 0 1 .45 1 1zm-7.96 0c0 .56-.45 1-1 1-.56 0-1-.44-1-1 0-.55.44-1 1-1 .55 0 1 .45 1 1zm-7.96 0c0 .56-.45 1-1 1-.56 0-1-.44-1-1 0-.55.44-1 1-1 .55 0 1 .45 1 1zm-7.97 0c0 .56-.44 1-1 1-.55 0-1-.44-1-1 0-.55.45-1 1-1 .56 0 1 .45 1 1zm-7.96 0c0 .56-.44 1-1 1-.55 0-1-.44-1-1 0-.55.45-1 1-1 .56 0 1 .45 1 1zm-7.96 0c0 .56-.44 1-1 1-.54 0-1-.44-1-1 0-.55.46-1 1-1 .56 0 1 .45 1 1zm-7.95 0c0 .56-.45 1-1 1s-1-.44-1-1c0-.55.45-1 1-1s1 .45 1 1zm-7.96 0c0 .56-.46 1-1 1-.56 0-1-.44-1-1 0-.55.44-1 1-1 .54 0 1 .45 1 1zm-7.97 0c0 .56-.45 1-1 1s-1-.44-1-1c0-.55.45-1 1-1s1 .45 1 1zm-7.96 0c0 .56-.45 1-1 1s-1-.44-1-1c0-.55.45-1 1-1s1 .45 1 1zm-7.96 0c0 .56-.44 1-1 1-.54 0-1-.44-1-1 0-.55.46-1 1-1 .56 0 1 .45 1 1zm-7.95 0c0 .56-.45 1-1 1-.56 0-1-.44-1-1 0-.55.44-1 1-1 .55 0 1 .45 1 1zm-7.96 0c0 .56-.46 1-1 1-.57 0-1-.44-1-1 0-.55.43-1 1-1 .54 0 1 .45 1 1zm-7.98 0c0 .56-.44 1-1 1-.55 0-1-.44-1-1 0-.55.45-1 1-1 .56 0 1 .45 1 1zm-7.96 0c0 .56-.44 1-1 1-.55 0-1-.44-1-1 0-.55.45-1 1-1 .56 0 1 .45 1 1zm-7.96 0c0 .56-.44 1-1 1-.55 0-1-.44-1-1 0-.55.45-1 1-1 .56 0 1 .45 1 1zm-7.96 0c0 .56-.45 1-1 1s-1-.44-1-1c0-.55.45-1 1-1s1 .45 1 1zm-7.96 0c0 .56-.45 1-1 1s-1-.44-1-1c0-.55.45-1 1-1s1 .45 1 1zm-7.96 0c0 .56-.45 1-1 1s-1-.44-1-1c0-.55.45-1 1-1s1 .45 1 1zm-7.96 0c0 .56-.45 1-1 1s-1-.44-1-1c0-.55.45-1 1-1s1 .45 1 1zm-7.96 0c0 .56-.45 1-1 1s-1-.44-1-1c0-.55.45-1 1-1s1 .45 1 1zm-7.96 0c0 .56-.45 1-1 1-.56 0-1-.44-1-1 0-.55.44-1 1-1 .55 0 1 .45 1 1zm-7.96 0c0 .56-.45 1-1 1-.56 0-1-.44-1-1 0-.55.44-1 1-1 .55 0 1 .45 1 1zm-7.96 0c0 .56-.45 1-1 1-.56 0-1-.44-1-1 0-.55.44-1 1-1 .55 0 1 .45 1 1zm-7.97 0c0 .56-.44 1-1 1-.55 0-1-.44-1-1 0-.55.45-1 1-1 .56 0 1 .45 1 1zm-7.96 0c0 .56-.45 1-1 1-.56 0-1-.44-1-1 0-.55.44-1 1-1 .55 0 1 .45 1 1zm-7.97 0c0 .56-.45 1-1 1s-1-.44-1-1c0-.55.45-1 1-1s1 .45 1 1zm-7.96 0c0 .56-.45 1-1 1s-1-.44-1-1c0-.55.45-1 1-1s1 .45 1 1zm-7.96 0c0 .56-.44 1-1 1-.54 0-1-.44-1-1 0-.55.46-1 1-1 .56 0 1 .45 1 1zm-7.95 0c0 .56-.45 1-1 1s-1-.44-1-1c0-.55.45-1 1-1s1 .45 1 1zm-7.96 0c0 .56-.46 1-1 1-.56 0-1-.44-1-1 0-.55.44-1 1-1 .54 0 1 .45 1 1zm-7.97 0c0 .56-.45 1-1 1s-1-.44-1-1c0-.55.45-1 1-1s1 .45 1 1zm-7.96 0c0 .56-.45 1-1 1-.56 0-1-.44-1-1 0-.55.44-1 1-1 .55 0 1 .45 1 1zm-7.96 0c0 .56-.44 1-1 1-.55 0-1-.44-1-1 0-.55.45-1 1-1 .56 0 1 .45 1 1zm-7.96 0c0 .56-.44 1-1 1-.55 0-1-.44-1-1 0-.55.45-1 1-1 .56 0 1 .45 1 1zm-7.96 0c0 .56-.44 1-1 1-.55 0-1-.44-1-1 0-.55.45-1 1-1 .56 0 1 .45 1 1zm-7.74-1.1c0 .54-.45 1-1 1s-1-.46-1-1c0-.56.45-1 1-1s1 .44 1 1zm-7.23-2.96c0 .56-.44 1-1 1-.54 0-1-.44-1-1 0-.55.46-1 1-1 .56 0 1 .45 1 1zm-6.17-4.8c0 .57-.45 1-1 1s-1-.43-1-1c0-.54.45-1 1-1s1 .46 1 1zm-4.76-6.18c0 .56-.45 1-1 1s-1-.44-1-1c0-.55.45-1 1-1s1 .45 1 1zm-3.02-7.2c0 .55-.45 1-1 1-.56 0-1-.45-1-1 0-.56.44-1 1-1 .55 0 1 .44 1 1zm-1.07-7.76c0 .56-.44 1-1 1-.55 0-1-.44-1-1 0-.55.45-1 1-1 .56 0 1 .45 1 1zm0-7.94c0 .55-.44 1-1 1-.55 0-1-.45-1-1 0-.56.45-1 1-1 .56 0 1 .44 1 1zm0-7.95c0 .56-.44 1-1 1-.55 0-1-.44-1-1 0-.55.45-1 1-1 .56 0 1 .45 1 1zm0-7.94c0 .55-.44 1-1 1-.55 0-1-.45-1-1s.45-1 1-1c.56 0 1 .45 1 1zm0-7.95c0 .56-.44 1-1 1-.55 0-1-.44-1-1 0-.54.45-1 1-1 .56 0 1 .46 1 1zm0-7.94c0 .55-.44 1-1 1-.55 0-1-.45-1-1s.45-1 1-1c.56 0 1 .45 1 1zm0-7.95c0 .56-.44 1-1 1-.55 0-1-.44-1-1 0-.54.45-1 1-1 .56 0 1 .46 1 1zm0-7.94c0 .56-.44 1-1 1-.55 0-1-.44-1-1 0-.55.45-1 1-1 .56 0 1 .45 1 1zm0-7.95c0 .57-.44 1-1 1-.55 0-1-.43-1-1 0-.54.45-1 1-1 .56 0 1 .46 1 1zm0-7.93c0 .55-.44 1-1 1-.55 0-1-.45-1-1 0-.56.45-1 1-1 .56 0 1 .44 1 1zm0-7.95c0 .55-.44 1-1 1-.55 0-1-.45-1-1 0-.56.45-1 1-1 .56 0 1 .44 1 1zm0-7.95c0 .55-.44 1-1 1-.55 0-1-.45-1-1s.45-1 1-1c.56 0 1 .45 1 1zm0-7.95c0 .55-.44 1-1 1-.55 0-1-.45-1-1s.45-1 1-1c.56 0 1 .45 1 1zm0-7.95c0 .55-.44 1-1 1-.55 0-1-.45-1-1s.45-1 1-1c.56 0 1 .45 1 1zm0-7.95c0 .55-.44 1-1 1-.55 0-1-.45-1-1s.45-1 1-1c.56 0 1 .45 1 1zm0-7.95c0 .56-.44 1-1 1-.55 0-1-.44-1-1 0-.55.45-1 1-1 .56 0 1 .45 1 1zm0-7.95c0 .56-.44 1-1 1-.55 0-1-.44-1-1 0-.55.45-1 1-1 .56 0 1 .45 1 1zm0-7.94c0 .55-.44 1-1 1-.55 0-1-.45-1-1 0-.56.45-1 1-1 .56 0 1 .44 1 1zm0-7.95c0 .55-.44 1-1 1-.55 0-1-.45-1-1s.45-1 1-1c.56 0 1 .45 1 1zm0-7.95c0 .55-.44 1-1 1-.55 0-1-.45-1-1s.45-1 1-1c.56 0 1 .45 1 1zm0-7.95c0 .55-.44 1-1 1-.55 0-1-.45-1-1s.45-1 1-1c.56 0 1 .45 1 1zm0-7.95c0 .55-.44 1-1 1-.55 0-1-.45-1-1s.45-1 1-1c.56 0 1 .45 1 1zm0-7.95c0 .56-.44 1-1 1-.55 0-1-.44-1-1 0-.55.45-1 1-1 .56 0 1 .45 1 1zm0-7.95c0 .56-.44 1-1 1-.55 0-1-.44-1-1 0-.55.45-1 1-1 .56 0 1 .45 1 1zm0-7.94c0 .55-.44 1-1 1-.55 0-1-.45-1-1 0-.56.45-1 1-1 .56 0 1 .44 1 1zm0-7.95c0 .54-.44 1-1 1-.55 0-1-.46-1-1 0-.57.45-1 1-1 .56 0 1 .43 1 1zm0-7.96c0 .55-.44 1-1 1-.55 0-1-.45-1-1s.45-1 1-1c.56 0 1 .45 1 1zm0-7.95c0 .54-.44 1-1 1-.55 0-1-.46-1-1 0-.56.45-1 1-1 .56 0 1 .44 1 1zm0-7.96c0 .55-.44 1-1 1-.55 0-1-.45-1-1s.45-1 1-1c.56 0 1 .45 1 1zm0-7.95c0 .54-.44 1-1 1-.55 0-1-.46-1-1 0-.56.45-1 1-1 .56 0 1 .44 1 1zm0-7.96c0 .56-.44 1-1 1-.55 0-1-.44-1-1 0-.55.45-1 1-1 .56 0 1 .45 1 1zm0-7.95c0 .55-.44 1-1 1-.55 0-1-.45-1-1 0-.56.45-1 1-1 .56 0 1 .44 1 1zm0-7.95c0 .55-.44 1-1 1-.55 0-1-.45-1-1 0-.56.45-1 1-1 .56 0 1 .44 1 1zm0-7.95c0 .55-.44 1-1 1-.55 0-1-.45-1-1s.45-1 1-1c.56 0 1 .45 1 1zm0-7.95c0 .55-.44 1-1 1-.55 0-1-.45-1-1s.45-1 1-1c.56 0 1 .45 1 1zm0-7.95c0 .55-.44 1-1 1-.55 0-1-.45-1-1s.45-1 1-1c.56 0 1 .45 1 1z" fill="#474747"/><path d="M280.16 305.6h120V367h-120v-61.4z" fill="#9d5025"/><path d="M280.16 300h120v61.4h-120V300z" fill="#f58536"/><path d="M306.08 303.67h5.65v54.08h-5.65v-54.08zM285.25 303.67h5.65v54.08h-5.65v-54.08zM295.66 303.67h5.65v54.08h-5.64v-54.08zM368.56 303.67h5.65v54.08h-5.64v-54.08zM378.98 303.67h5.65v54.08h-5.65v-54.08zM389.4 303.67h5.65v54.08h-5.66v-54.08z" fill="#fbbf93"/><path d="M286.72 305.13h4.2v52.62h-4.2v-52.62zM297.14 305.13h4.2v52.62h-4.2v-52.62zM307.55 305.13h4.2v52.62h-4.2v-52.62zM370.04 305.13h4.2v52.62h-4.2v-52.62zM380.45 305.13h4.2v52.62h-4.2v-52.62zM390.87 305.13h4.2v52.62h-4.2v-52.62z" fill="#fff"/><path d="M331.94 316.9h16.45c5.65 0 5.65 0 5.65 5.64v16.37c0 5.65 0 5.65-5.66 5.65h-16.46c-5.67 0-5.67 0-5.67-5.64v-16.36c0-5.64 0-5.64 5.67-5.64z" fill="#d16929"/><path d="M348.36 346.24h-16.43c-4.06 0-7.36-3.3-7.36-7.33v-16.37c0-4.03 3.3-7.32 7.36-7.32h16.46c4.04 0 7.35 3.3 7.35 7.33v16.38c0 4.05-3.3 7.34-7.36 7.34h-.04zm-16.43-27.65c-2.2 0-3.96 1.76-3.96 3.93v16.38c0 2.2 1.77 3.95 3.96 3.95h16.46c2.17 0 3.95-1.76 3.95-3.94v-16.37c0-2.17-1.78-3.94-3.96-3.94z" fill="#fff"/><path d="M331.4 318.6c-.95 0-1.7-.77-1.7-1.7v-6.2c0-.93.75-1.7 1.7-1.7.93 0 1.7.77 1.7 1.7v6.2c0 .93-.77 1.7-1.7 1.7zM337.2 318.6c-.95 0-1.7-.77-1.7-1.7v-6.2c0-.93.75-1.7 1.7-1.7.92 0 1.7.77 1.7 1.7v6.2c0 .93-.78 1.7-1.7 1.7zM342.96 318.6c-.94 0-1.7-.77-1.7-1.7v-6.2c0-.93.76-1.7 1.7-1.7s1.7.77 1.7 1.7v6.2c0 .93-.76 1.7-1.7 1.7zM348.76 318.6c-.94 0-1.7-.77-1.7-1.7v-6.2c0-.93.76-1.7 1.7-1.7.93 0 1.7.77 1.7 1.7v6.2c0 .93-.77 1.7-1.7 1.7zM331.4 352.43c-.95 0-1.7-.75-1.7-1.68v-6.2c0-.93.75-1.7 1.7-1.7.93 0 1.7.77 1.7 1.7v6.2c0 .93-.77 1.68-1.7 1.68zM337.2 352.43c-.95 0-1.7-.75-1.7-1.68v-6.2c0-.93.75-1.7 1.7-1.7.92 0 1.7.77 1.7 1.7v6.2c0 .93-.78 1.68-1.7 1.68zM342.96 352.43c-.94 0-1.7-.75-1.7-1.68v-6.2c0-.93.76-1.7 1.7-1.7s1.7.77 1.7 1.7v6.2c0 .93-.76 1.68-1.7 1.68zM348.76 352.43c-.94 0-1.7-.75-1.7-1.68v-6.2c0-.93.76-1.7 1.7-1.7.93 0 1.7.77 1.7 1.7v6.2c0 .93-.77 1.68-1.7 1.68zM360.28 323.77h-6.25c-.93 0-1.7-.75-1.7-1.7 0-.92.77-1.68 1.7-1.68h6.23c.93 0 1.7.75 1.7 1.68 0 .94-.77 1.7-1.7 1.7zM360.28 329.5h-6.25c-.93 0-1.7-.74-1.7-1.67 0-.94.77-1.7 1.7-1.7h6.23c.93 0 1.7.76 1.7 1.7 0 .93-.77 1.68-1.7 1.68zM360.28 335.28h-6.25c-.93 0-1.7-.75-1.7-1.7 0-.92.77-1.67 1.7-1.67h6.23c.93 0 1.7.76 1.7 1.7 0 .93-.77 1.68-1.7 1.68zM360.28 341.03h-6.25c-.93 0-1.7-.76-1.7-1.7 0-.92.77-1.68 1.7-1.68h6.23c.93 0 1.7.76 1.7 1.7 0 .92-.77 1.68-1.7 1.68zM326.18 323.77h-6.23c-.93 0-1.7-.75-1.7-1.7 0-.92.77-1.68 1.7-1.68h6.23c.93 0 1.7.75 1.7 1.68 0 .94-.77 1.7-1.7 1.7zM326.18 329.5h-6.23c-.93 0-1.7-.74-1.7-1.67 0-.94.77-1.7 1.7-1.7h6.23c.93 0 1.7.76 1.7 1.7 0 .93-.77 1.68-1.7 1.68zM326.18 335.28h-6.23c-.93 0-1.7-.75-1.7-1.7 0-.92.77-1.67 1.7-1.67h6.23c.93 0 1.7.76 1.7 1.7 0 .93-.77 1.68-1.7 1.68zM326.18 341.03h-6.23c-.93 0-1.7-.76-1.7-1.7 0-.92.77-1.68 1.7-1.68h6.23c.93 0 1.7.76 1.7 1.7 0 .92-.77 1.68-1.7 1.68z" fill="#fff"/><path d="M334.54 325.13h11.22v11.17h-11.22v-11.18z" fill="#fbbf93"/><path d="M345.77 337.43h-11.33c-.62 0-1.12-.5-1.12-1.13v-11.27c0-.62.5-1.12 1.12-1.12h11.33c.63 0 1.13.5 1.13 1.13v11.27c0 .63-.5 1.13-1.13 1.13zm-10.1-2.26h9.06v-9h-9.1z" fill="#fff"/><use xlink:href="#f" transform="matrix(1,0,0,1,280.15730859179104,367) translate(36.83948418832037 11.510316745062529)"/><use xlink:href="#g" transform="matrix(1,0,0,1,280.15730859179104,367) translate(18.87459746295368 28.775791862656323)"/><path d="M340.16 299v-44" stroke="#000" stroke-width="2" fill="none"/><path d="M341.16 300h-2v-1.03h2z"/><path d="M340.16 239.74L344.8 254h-9.28z" stroke="#000" stroke-width="2"/><path d="M747.65 471.2h120v61.42h-120v-61.4z" fill="#9d5025"/><path d="M747.65 465.62h120v61.4h-120v-61.4z" fill="#f58536"/><path d="M773.57 469.3h5.65v54.08h-5.65V469.3zM752.74 469.3h5.65v54.08h-5.66V469.3zM763.15 469.3h5.65v54.08h-5.65V469.3zM836.05 469.3h5.65v54.08h-5.65V469.3zM846.47 469.3h5.65v54.08h-5.65V469.3zM856.88 469.3h5.66v54.08h-5.66V469.3z" fill="#fbbf93"/><path d="M754.2 470.76h4.2v52.62h-4.2v-52.62zM764.63 470.76h4.2v52.62h-4.2v-52.62zM775.04 470.76h4.2v52.62h-4.2v-52.62zM837.53 470.76h4.2v52.62h-4.2v-52.62zM847.94 470.76h4.2v52.62h-4.2v-52.62zM858.36 470.76h4.2v52.62h-4.2v-52.62z" fill="#fff"/><path d="M799.43 482.52h16.45c5.66 0 5.66 0 5.66 5.64v16.37c0 5.64 0 5.64-5.66 5.64h-16.45c-5.67 0-5.67 0-5.67-5.64v-16.37c0-5.64 0-5.64 5.67-5.64z" fill="#d16929"/><path d="M815.85 511.86h-16.43c-4.06 0-7.36-3.3-7.36-7.32v-16.38c0-4.04 3.3-7.33 7.36-7.33h16.46c4.05 0 7.36 3.3 7.36 7.33v16.38c0 4.03-3.3 7.32-7.36 7.32h-.03zm-16.43-27.64c-2.18 0-3.96 1.76-3.96 3.94v16.38c0 2.17 1.78 3.94 3.96 3.94h16.46c2.18 0 3.96-1.77 3.96-3.94v-16.38c0-2.18-1.78-3.94-3.96-3.94z" fill="#fff"/><path d="M798.88 484.2c-.94 0-1.7-.75-1.7-1.67v-6.2c0-.94.76-1.7 1.7-1.7s1.7.76 1.7 1.7v6.2c0 .92-.76 1.68-1.7 1.68zM804.68 484.2c-.94 0-1.7-.75-1.7-1.67v-6.2c0-.94.76-1.7 1.7-1.7s1.7.76 1.7 1.7v6.2c0 .92-.76 1.68-1.7 1.68zM810.45 484.2c-.94 0-1.7-.75-1.7-1.67v-6.2c0-.94.76-1.7 1.7-1.7s1.7.76 1.7 1.7v6.2c0 .92-.76 1.68-1.7 1.68zM816.25 484.2c-.94 0-1.7-.75-1.7-1.67v-6.2c0-.94.76-1.7 1.7-1.7.93 0 1.7.76 1.7 1.7v6.2c0 .92-.77 1.68-1.7 1.68zM798.88 518.06c-.94 0-1.7-.76-1.7-1.7v-6.2c0-.92.76-1.68 1.7-1.68s1.7.76 1.7 1.7v6.2c0 .92-.76 1.68-1.7 1.68zM804.68 518.06c-.94 0-1.7-.76-1.7-1.7v-6.2c0-.92.76-1.68 1.7-1.68s1.7.76 1.7 1.7v6.2c0 .92-.76 1.68-1.7 1.68zM810.45 518.06c-.94 0-1.7-.76-1.7-1.7v-6.2c0-.92.76-1.68 1.7-1.68s1.7.76 1.7 1.7v6.2c0 .92-.76 1.68-1.7 1.68zM816.25 518.06c-.94 0-1.7-.76-1.7-1.7v-6.2c0-.92.76-1.68 1.7-1.68.93 0 1.7.76 1.7 1.7v6.2c0 .92-.77 1.68-1.7 1.68zM827.77 489.4h-6.25c-.93 0-1.7-.76-1.7-1.7 0-.92.77-1.68 1.7-1.68h6.23c.93 0 1.7.76 1.7 1.7 0 .92-.77 1.68-1.7 1.68zM827.77 495.14h-6.25c-.93 0-1.7-.76-1.7-1.7 0-.92.77-1.68 1.7-1.68h6.23c.93 0 1.7.76 1.7 1.7 0 .92-.77 1.68-1.7 1.68zM827.77 500.9h-6.25c-.93 0-1.7-.75-1.7-1.68 0-.93.77-1.7 1.7-1.7h6.23c.93 0 1.7.77 1.7 1.7 0 .93-.77 1.7-1.7 1.7zM827.77 506.66h-6.25c-.93 0-1.7-.76-1.7-1.7 0-.92.77-1.68 1.7-1.68h6.23c.93 0 1.7.76 1.7 1.7 0 .92-.77 1.68-1.7 1.68zM793.67 489.4h-6.23c-.93 0-1.7-.76-1.7-1.7 0-.92.77-1.68 1.7-1.68h6.23c.93 0 1.7.76 1.7 1.7 0 .92-.77 1.68-1.7 1.68zM793.67 495.14h-6.23c-.93 0-1.7-.76-1.7-1.7 0-.92.77-1.68 1.7-1.68h6.23c.93 0 1.7.76 1.7 1.7 0 .92-.77 1.68-1.7 1.68zM793.67 500.9h-6.23c-.93 0-1.7-.75-1.7-1.68 0-.93.77-1.7 1.7-1.7h6.23c.93 0 1.7.77 1.7 1.7 0 .93-.77 1.7-1.7 1.7zM793.67 506.66h-6.23c-.93 0-1.7-.76-1.7-1.7 0-.92.77-1.68 1.7-1.68h6.23c.93 0 1.7.76 1.7 1.7 0 .92-.77 1.68-1.7 1.68z" fill="#fff"/><path d="M802.03 490.75h11.22v11.18h-11.22v-11.18z" fill="#fbbf93"/><path d="M813.26 503.05h-11.32c-.63 0-1.13-.5-1.13-1.12v-11.28c0-.62.5-1.12 1.14-1.12h11.32c.63 0 1.13.5 1.13 1.12v11.28c0 .62-.5 1.12-1.14 1.12zm-10.1-2.26h9.06v-9h-9.1z" fill="#fff"/><use xlink:href="#h" transform="matrix(1,0,0,1,747.6481882531068,532.6249999696552) translate(2.5083658410678993 12.877579186265631)"/><use xlink:href="#i" transform="matrix(1,0,0,1,747.6481882531068,532.6249999696552) translate(35.24082908483946 12.877579186265631)"/><path d="M541 356.98l30.98-.75 38.63-1.27 11.48.23 9.07.55 8 .84 7.52 1.1 7.3 1.4 7.35 1.72 7.57 2.1 2.42.8" stroke="#000" stroke-width="2" fill="none"/><path d="M541.05 357.97L540 358v-2l1-.02z"/><path d="M685.66 368.93l-15-.5 3.17-8.73z" stroke="#000" stroke-width="2"/><path d="M496.2 356.22H540V367h-43.8v-10.78zM496.2 343.8H540v9.8h-43.8v-9.8zM540 338.6v1.9h-43.8v-1.9l25.22-10.48L540 338.6z" fill="#876929"/><path d="M496.2 327H540v11.6h-43.8V327zM496.2 342.03H540v9.66h-43.8zM496.2 355.42H540v9.66h-43.8z" fill="#d9a741"/><path d="M497.62 344.06h40.95v5.6h-40.95v-5.6zM497.62 357.45h40.95v5.6h-40.95v-5.6z" fill="#fff"/><use xlink:href="#j" transform="matrix(1,0,0,1,496.19697012475854,367) translate(-43.04527952287938 12.877579186265631)"/><path d="M518.08 368l-.6 32.48-1.5 23.64-4.24 53.37-.28 14.97" stroke="#000" stroke-width="2" fill="none"/><path d="M519.08 368.04l-2-.04.02-1h2z"/><path d="M511.17 507.73l-4.36-14.35 9.28.18z" stroke="#000" stroke-width="2"/><path d="M477.72 356.17l-1.45-.1-7.17-.95-6.72-1.24-8.23-1.98-20.17-5.28-6.72-1.24-7.18-.94-8.6-.66-10.32-.26" stroke="#000" stroke-width="2" fill="none"/><path d="M492.96 356.85l-14.46 4 .42-9.27z" stroke="#000" stroke-width="2"/><path d="M401.18 342.5v2h-1.02v-2z"/><path d="M529.28 527.92c0 8.64-8.14 15.66-18.17 15.66-10.02 0-18.16-7.02-18.16-15.66 0-8.65 8.14-15.66 18.17-15.66 10.04 0 18.18 7 18.18 15.66z" fill="#9d5025"/><path d="M492.94 526.63h36.34v1.28h-36.34v-1.27z" fill="#9d5025"/><path d="M529.28 526.63c0 8.65-8.14 15.66-18.17 15.66-10.02 0-18.16-7.02-18.16-15.67 0-8.64 8.14-15.66 18.17-15.66 10.04 0 18.18 7.02 18.18 15.66z" fill="#f58536"/><path d="M522.93 534.33l-1.42-3.2-3.14 1.04-4.5-10.17-1.25-2.8-.58-1.34-.9-2.08h-5.99v3.4h3.24l1.14 2.55-9.4 14.4h4.55l6.68-10.26 4.75 10.7 1.14-.37 2.56-.83 3.15-1.04z" fill="#fff"/><use xlink:href="#k" transform="matrix(1,0,0,1,492.94117647058823,543.5800000000002) translate(0.11546630996957674 11.510316745062529)"/><use xlink:href="#l" transform="matrix(1,0,0,1,492.94117647058823,543.5800000000002) translate(-5.459843363420088 28.775791862656323)"/><path d="M425.42 489.66v-8.4l-8.16-9.75-13.37 32.07 13.36 32.07 8.16-9.75v-8.48l-2.7 2.06v-4.1l2.7-1.55v-8.46l-2.7.06v-3.78l2.7.13v-8.28l-2.7-1.54v-2.88l2.7.58z" fill="#2e73b8"/><path d="M402.7 543.58l14.56-7.92V471.5l-14.56-7.92-16.5 40.64 16.5 39.36z" fill="#5294cf"/><path d="M382.3 543.58h20.4v-80h-20.4l-10.55 40.64 10.56 39.36z" fill="#2e73b8"/><path d="M382.3 543.58l-14.7-7.92-4.6-31.44 4.6-32.72 14.66-7.92.03 80z" fill="#205b99"/><path d="M422.7 515.42l-5.45 2.9-14.56 3.38h-20.42l-14.23-3.4-.26-.06-.2-.06v-12.06l14.68 1.16h20.43l14.55-1.16 8.2-.77h-2.74v-3.6h2.68l-8.13-.63-14.56-.5h-20.3l-14.8.37v-12.2h.2l14.6-3.78h20.3l14.55 3.8 5.46 3.13v-2l2.74-.25-8.2-6.22-14.55-5.13h-20.3l-14.8 5.33v-12.2l-7.16 9.76v8.46l2.08.26V492l-2.08 1.3v8.46h2.08v3.6l-2.08.06v8.4l2.08 1.28v2.12l-2.08.25v8.4l7.15 9.75v-12.18l14.68 4.93h20.43l14.55-4.93 8.2-5.97-2.74-.25v-1.8z" fill="#19486f"/><use xlink:href="#m" transform="matrix(1,0,0,1,360.44117647058823,543.5799999999999) translate(-2.150429087786435 11.510316745062529)"/><use xlink:href="#n" transform="matrix(1,0,0,1,360.44117647058823,543.5799999999999) translate(-14.919686726840169 28.775791862656323)"/><path d="M392.94 605.63v-43.55" stroke="#000" stroke-width="2" fill="none"/><path d="M392.94 620.9l-4.63-14.27h9.28zM392.94 546.82l4.64 14.26h-9.27z" stroke="#000" stroke-width="2"/><path d="M493.62 519.98l-6.4-2.4-6.48-1.88-6.17-1.32-6.44-.9-7.87-.5-16.34.28" stroke="#000" stroke-width="2" fill="none"/><path d="M495.02 519.43l-.2.24-.64 1.58-.93-.35.7-1.87z"/><path d="M428.66 513.52l14.18-4.88.16 9.27z" stroke="#000" stroke-width="2"/><path d="M305.44 473.58c0-16.57 13.43-30 30-30h187.5c16.57 0 30 13.43 30 30v220c0 16.57-13.43 30-30 30h-187.5c-16.57 0-30-13.43-30-30z" fill="none"/><path d="M306.44 473.58c0 .55-.45 1-1 1s-1-.45-1-1 .45-1 1-1 1 .45 1 1zm1.1-7.74c0 .55-.43 1-1 1-.54 0-1-.45-1-1s.46-1 1-1c.57 0 1 .45 1 1zm2.96-7.23c0 .56-.45 1-1 1s-1-.44-1-1c0-.55.45-1 1-1s1 .45 1 1zm4.8-6.17c0 .55-.46 1-1 1-.56 0-1-.45-1-1 0-.56.44-1 1-1 .54 0 1 .44 1 1zm6.18-4.76c0 .55-.45 1-1 1s-1-.45-1-1c0-.56.45-1 1-1s1 .44 1 1zm7.2-3.03c0 .56-.44 1-1 1-.54 0-1-.44-1-1 0-.55.46-1 1-1 .56 0 1 .45 1 1zm7.76-1.06c0 .55-.45 1-1 1s-1-.45-1-1 .45-1 1-1 1 .45 1 1zm8.15 0c0 .55-.45 1-1 1-.56 0-1-.45-1-1s.44-1 1-1c.55 0 1 .45 1 1zm8.15 0c0 .55-.45 1-1 1-.56 0-1-.45-1-1s.44-1 1-1c.55 0 1 .45 1 1zm8.15 0c0 .55-.45 1-1 1s-1-.45-1-1 .45-1 1-1 1 .45 1 1zm8.15 0c0 .55-.45 1-1 1s-1-.45-1-1 .45-1 1-1 1 .45 1 1zm8.15 0c0 .55-.45 1-1 1s-1-.45-1-1 .45-1 1-1 1 .45 1 1zm8.15 0c0 .55-.44 1-1 1-.55 0-1-.45-1-1s.45-1 1-1c.56 0 1 .45 1 1zm8.16 0c0 .55-.44 1-1 1-.55 0-1-.45-1-1s.45-1 1-1c.56 0 1 .45 1 1zm8.16 0c0 .55-.45 1-1 1s-1-.45-1-1 .45-1 1-1 1 .45 1 1zm8.15 0c0 .55-.44 1-1 1-.54 0-1-.45-1-1s.46-1 1-1c.56 0 1 .45 1 1zm8.16 0c0 .55-.44 1-1 1-.55 0-1-.45-1-1s.45-1 1-1c.56 0 1 .45 1 1zm8.16 0c0 .55-.45 1-1 1-.56 0-1-.45-1-1s.44-1 1-1c.55 0 1 .45 1 1zm8.15 0c0 .55-.45 1-1 1-.56 0-1-.45-1-1s.44-1 1-1c.55 0 1 .45 1 1zm8.15 0c0 .55-.45 1-1 1s-1-.45-1-1 .45-1 1-1 1 .45 1 1zm8.15 0c0 .55-.45 1-1 1s-1-.45-1-1 .45-1 1-1 1 .45 1 1zm8.15 0c0 .55-.44 1-1 1-.55 0-1-.45-1-1s.45-1 1-1c.56 0 1 .45 1 1zm8.16 0c0 .55-.45 1-1 1-.56 0-1-.45-1-1s.44-1 1-1c.55 0 1 .45 1 1zm8.15 0c0 .55-.45 1-1 1s-1-.45-1-1 .45-1 1-1 1 .45 1 1zm8.15 0c0 .55-.45 1-1 1s-1-.45-1-1 .45-1 1-1 1 .45 1 1zm8.15 0c0 .55-.45 1-1 1s-1-.45-1-1 .45-1 1-1 1 .45 1 1zm8.15 0c0 .55-.44 1-1 1-.55 0-1-.45-1-1s.45-1 1-1c.56 0 1 .45 1 1zm8.16 0c0 .55-.45 1-1 1-.56 0-1-.45-1-1s.44-1 1-1c.55 0 1 .45 1 1zm8.15 0c0 .55-.46 1-1 1-.56 0-1-.45-1-1s.44-1 1-1c.54 0 1 .45 1 1zm8.14 0c0 .55-.45 1-1 1s-1-.45-1-1 .45-1 1-1 1 .45 1 1zm7.74 1.1c0 .57-.45 1-1 1s-1-.43-1-1c0-.54.45-1 1-1s1 .46 1 1zm7.24 2.96c0 .55-.45 1-1 1-.56 0-1-.45-1-1s.44-1 1-1c.55 0 1 .45 1 1zm6.18 4.8c0 .54-.45 1-1 1-.56 0-1-.46-1-1 0-.56.44-1 1-1 .55 0 1 .44 1 1zm4.75 6.18c0 .55-.44 1-1 1-.55 0-1-.45-1-1s.45-1 1-1c.56 0 1 .45 1 1zm3.03 7.2c0 .56-.45 1-1 1s-1-.44-1-1c0-.54.45-1 1-1s1 .46 1 1zm1.06 7.76c0 .55-.45 1-1 1s-1-.45-1-1 .45-1 1-1 1 .45 1 1zm0 7.86c0 .55-.45 1-1 1s-1-.45-1-1c0-.56.45-1 1-1s1 .44 1 1zm0 7.85c0 .55-.45 1-1 1s-1-.45-1-1c0-.56.45-1 1-1s1 .44 1 1zm0 7.85c0 .55-.45 1-1 1s-1-.45-1-1 .45-1 1-1 1 .45 1 1zm0 7.86c0 .56-.45 1-1 1s-1-.44-1-1c0-.54.45-1 1-1s1 .46 1 1zm0 7.87c0 .55-.45 1-1 1s-1-.45-1-1c0-.56.45-1 1-1s1 .44 1 1zm0 7.85c0 .56-.45 1-1 1s-1-.44-1-1c0-.55.45-1 1-1s1 .45 1 1zm0 7.86c0 .55-.45 1-1 1s-1-.45-1-1 .45-1 1-1 1 .45 1 1zm0 7.86c0 .55-.45 1-1 1s-1-.45-1-1c0-.56.45-1 1-1s1 .44 1 1zm0 7.85c0 .55-.45 1-1 1s-1-.45-1-1c0-.56.45-1 1-1s1 .44 1 1zm0 7.85c0 .55-.45 1-1 1s-1-.45-1-1 .45-1 1-1 1 .45 1 1zm0 7.86c0 .56-.45 1-1 1s-1-.44-1-1c0-.54.45-1 1-1s1 .46 1 1zm0 7.87c0 .55-.45 1-1 1s-1-.45-1-1c0-.56.45-1 1-1s1 .44 1 1zm0 7.85c0 .56-.45 1-1 1s-1-.44-1-1c0-.55.45-1 1-1s1 .45 1 1zm0 7.86c0 .55-.45 1-1 1s-1-.45-1-1 .45-1 1-1 1 .45 1 1zm0 7.86c0 .55-.45 1-1 1s-1-.45-1-1c0-.56.45-1 1-1s1 .44 1 1zm0 7.85c0 .55-.45 1-1 1s-1-.45-1-1c0-.56.45-1 1-1s1 .44 1 1zm0 7.85c0 .55-.45 1-1 1s-1-.45-1-1 .45-1 1-1 1 .45 1 1zm0 7.86c0 .56-.45 1-1 1s-1-.44-1-1c0-.54.45-1 1-1s1 .46 1 1zm0 7.87c0 .55-.45 1-1 1s-1-.45-1-1c0-.56.45-1 1-1s1 .44 1 1zm0 7.85c0 .56-.45 1-1 1s-1-.44-1-1c0-.55.45-1 1-1s1 .45 1 1zm0 7.86c0 .55-.45 1-1 1s-1-.45-1-1 .45-1 1-1 1 .45 1 1zm0 7.86c0 .55-.45 1-1 1s-1-.45-1-1c0-.56.45-1 1-1s1 .44 1 1zm0 7.85c0 .55-.45 1-1 1s-1-.45-1-1c0-.56.45-1 1-1s1 .44 1 1zm0 7.85c0 .55-.45 1-1 1s-1-.45-1-1 .45-1 1-1 1 .45 1 1zm0 7.86c0 .56-.45 1-1 1s-1-.44-1-1c0-.54.45-1 1-1s1 .46 1 1zm0 7.87c0 .55-.45 1-1 1s-1-.45-1-1c0-.56.45-1 1-1s1 .44 1 1zm0 7.85c0 .56-.45 1-1 1s-1-.44-1-1c0-.55.45-1 1-1s1 .45 1 1zm0 7.86c0 .55-.45 1-1 1s-1-.45-1-1 .45-1 1-1 1 .45 1 1zm-1.1 7.74c0 .55-.46 1-1 1-.56 0-1-.45-1-1s.44-1 1-1c.54 0 1 .45 1 1zm-2.96 7.23c0 .56-.45 1-1 1s-1-.44-1-1c0-.55.45-1 1-1s1 .45 1 1zm-4.8 6.18c0 .56-.44 1-1 1-.54 0-1-.44-1-1 0-.55.46-1 1-1 .56 0 1 .45 1 1zm-6.18 4.76c0 .55-.45 1-1 1s-1-.45-1-1c0-.56.45-1 1-1s1 .44 1 1zm-7.2 3.02c0 .55-.46 1-1 1-.56 0-1-.45-1-1 0-.56.44-1 1-1 .54 0 1 .44 1 1zm-7.76 1.06c0 .55-.45 1-1 1s-1-.45-1-1 .45-1 1-1 1 .45 1 1zm-8.15 0c0 .55-.46 1-1 1-.56 0-1-.45-1-1s.44-1 1-1c.54 0 1 .45 1 1zm-8.16 0c0 .55-.45 1-1 1-.56 0-1-.45-1-1s.44-1 1-1c.55 0 1 .45 1 1zm-8.16 0c0 .55-.44 1-1 1-.55 0-1-.45-1-1s.45-1 1-1c.56 0 1 .45 1 1zm-8.15 0c0 .55-.45 1-1 1s-1-.45-1-1 .45-1 1-1 1 .45 1 1zm-8.15 0c0 .55-.45 1-1 1s-1-.45-1-1 .45-1 1-1 1 .45 1 1zm-8.15 0c0 .55-.45 1-1 1s-1-.45-1-1 .45-1 1-1 1 .45 1 1zm-8.15 0c0 .55-.45 1-1 1-.56 0-1-.45-1-1s.44-1 1-1c.55 0 1 .45 1 1zm-8.16 0c0 .55-.44 1-1 1-.55 0-1-.45-1-1s.45-1 1-1c.56 0 1 .45 1 1zm-8.15 0c0 .55-.45 1-1 1s-1-.45-1-1 .45-1 1-1 1 .45 1 1zm-8.15 0c0 .55-.45 1-1 1s-1-.45-1-1 .45-1 1-1 1 .45 1 1zm-8.15 0c0 .55-.45 1-1 1-.56 0-1-.45-1-1s.44-1 1-1c.55 0 1 .45 1 1zm-8.15 0c0 .55-.45 1-1 1-.56 0-1-.45-1-1s.44-1 1-1c.55 0 1 .45 1 1zm-8.16 0c0 .55-.44 1-1 1-.55 0-1-.45-1-1s.45-1 1-1c.56 0 1 .45 1 1zm-8.15 0c0 .55-.44 1-1 1-.54 0-1-.45-1-1s.46-1 1-1c.56 0 1 .45 1 1zm-8.14 0c0 .55-.45 1-1 1s-1-.45-1-1 .45-1 1-1 1 .45 1 1zm-8.15 0c0 .55-.44 1-1 1-.55 0-1-.45-1-1s.45-1 1-1c.56 0 1 .45 1 1zm-8.15 0c0 .55-.44 1-1 1-.55 0-1-.45-1-1s.45-1 1-1c.56 0 1 .45 1 1zm-8.15 0c0 .55-.45 1-1 1s-1-.45-1-1 .45-1 1-1 1 .45 1 1zm-8.15 0c0 .55-.45 1-1 1s-1-.45-1-1 .45-1 1-1 1 .45 1 1zm-8.15 0c0 .55-.45 1-1 1s-1-.45-1-1 .45-1 1-1 1 .45 1 1zm-8.15 0c0 .55-.45 1-1 1-.56 0-1-.45-1-1s.44-1 1-1c.55 0 1 .45 1 1zm-8.16 0c0 .55-.45 1-1 1-.56 0-1-.45-1-1s.44-1 1-1c.55 0 1 .45 1 1zm-8.16 0c0 .55-.45 1-1 1s-1-.45-1-1 .45-1 1-1 1 .45 1 1zm-7.74-1.1c0 .54-.45 1-1 1s-1-.46-1-1c0-.57.45-1 1-1s1 .43 1 1zm-7.23-2.96c0 .55-.45 1-1 1-.56 0-1-.45-1-1s.44-1 1-1c.55 0 1 .45 1 1zm-6.18-4.8c0 .56-.46 1-1 1-.57 0-1-.44-1-1 0-.54.43-1 1-1 .54 0 1 .46 1 1zm-4.77-6.18c0 .55-.45 1-1 1s-1-.45-1-1 .45-1 1-1 1 .45 1 1zm-3.03-7.2c0 .54-.44 1-1 1-.55 0-1-.46-1-1 0-.56.45-1 1-1 .56 0 1 .44 1 1zm-1.06-7.76c0 .55-.45 1-1 1s-1-.45-1-1 .45-1 1-1 1 .45 1 1zm0-7.86c0 .56-.45 1-1 1s-1-.44-1-1c0-.55.45-1 1-1s1 .45 1 1zm0-7.85c0 .55-.45 1-1 1s-1-.45-1-1c0-.56.45-1 1-1s1 .44 1 1zm0-7.86c0 .56-.45 1-1 1s-1-.44-1-1c0-.54.45-1 1-1s1 .46 1 1zm0-7.85c0 .55-.45 1-1 1s-1-.45-1-1 .45-1 1-1 1 .45 1 1zm0-7.86c0 .55-.45 1-1 1s-1-.45-1-1c0-.56.45-1 1-1s1 .44 1 1zm0-7.86c0 .55-.45 1-1 1s-1-.45-1-1c0-.56.45-1 1-1s1 .44 1 1zm0-7.86c0 .55-.45 1-1 1s-1-.45-1-1 .45-1 1-1 1 .45 1 1zm0-7.86c0 .56-.45 1-1 1s-1-.44-1-1c0-.55.45-1 1-1s1 .45 1 1zm0-7.85c0 .55-.45 1-1 1s-1-.45-1-1c0-.56.45-1 1-1s1 .44 1 1zm0-7.86c0 .56-.45 1-1 1s-1-.44-1-1c0-.54.45-1 1-1s1 .46 1 1zm0-7.85c0 .55-.45 1-1 1s-1-.45-1-1 .45-1 1-1 1 .45 1 1zm0-7.86c0 .55-.45 1-1 1s-1-.45-1-1c0-.56.45-1 1-1s1 .44 1 1zm0-7.86c0 .55-.45 1-1 1s-1-.45-1-1c0-.56.45-1 1-1s1 .44 1 1zm0-7.86c0 .55-.45 1-1 1s-1-.45-1-1 .45-1 1-1 1 .45 1 1zm0-7.86c0 .56-.45 1-1 1s-1-.44-1-1c0-.55.45-1 1-1s1 .45 1 1zm0-7.85c0 .55-.45 1-1 1s-1-.45-1-1c0-.56.45-1 1-1s1 .44 1 1zm0-7.86c0 .56-.45 1-1 1s-1-.44-1-1c0-.54.45-1 1-1s1 .46 1 1zm0-7.85c0 .55-.45 1-1 1s-1-.45-1-1 .45-1 1-1 1 .45 1 1zm0-7.86c0 .55-.45 1-1 1s-1-.45-1-1c0-.56.45-1 1-1s1 .44 1 1zm0-7.86c0 .55-.45 1-1 1s-1-.45-1-1c0-.56.45-1 1-1s1 .44 1 1zm0-7.86c0 .55-.45 1-1 1s-1-.45-1-1 .45-1 1-1 1 .45 1 1zm0-7.86c0 .56-.45 1-1 1s-1-.44-1-1c0-.55.45-1 1-1s1 .45 1 1zm0-7.85c0 .55-.45 1-1 1s-1-.45-1-1c0-.56.45-1 1-1s1 .44 1 1zm0-7.86c0 .56-.45 1-1 1s-1-.44-1-1c0-.54.45-1 1-1s1 .46 1 1zm0-7.85c0 .55-.45 1-1 1s-1-.45-1-1 .45-1 1-1 1 .45 1 1zm0-7.86c0 .55-.45 1-1 1s-1-.45-1-1c0-.56.45-1 1-1s1 .44 1 1zm0-7.86c0 .55-.45 1-1 1s-1-.45-1-1c0-.56.45-1 1-1s1 .44 1 1z" fill="#474747"/><path d="M724 376.27c0 8.64-8.15 15.66-18.18 15.66s-18.17-7.02-18.17-15.66c0-8.65 8.14-15.67 18.17-15.67 10.03 0 18.17 7.02 18.17 15.67z" fill="#9d5025"/><path d="M687.65 374.98H724v1.28h-36.35v-1.28z" fill="#9d5025"/><path d="M724 374.98c0 8.65-8.15 15.66-18.18 15.66s-18.17-7-18.17-15.66c0-8.64 8.14-15.66 18.17-15.66 10.03 0 18.17 7.02 18.17 15.66z" fill="#f58536"/><path d="M717.64 382.68l-1.42-3.2-3.15 1.04-4.5-10.17-1.25-2.8-.6-1.34-.9-2.07h-5.99v3.4h3.24l1.15 2.55-9.4 14.4h4.53l6.7-10.26 4.74 10.7 1.13-.37 2.56-.83 3.14-1.04z" fill="#fff"/><use xlink:href="#o" transform="matrix(1,0,0,1,687.6481882531069,391.92982461190644) translate(-2.262533156458275 11.510316745062529)"/><use xlink:href="#p" transform="matrix(1,0,0,1,687.6481882531069,391.92982461190644) translate(-7.038515278107482 28.775791862656323)"/><path d="M840.13 331.7v-8.4l-8.16-9.75-13.37 32.07 13.37 32.06 8.16-9.75v-8.46l-2.7 2.05v-4.1l2.7-1.54v-8.47l-2.7.08v-3.8l2.7.14v-8.27l-2.7-1.54v-2.88l2.7.58z" fill="#2e73b8"/><path d="M817.4 385.62l14.57-7.92v-64.16l-14.56-7.92-16.5 40.64 16.5 39.36z" fill="#5294cf"/><path d="M797 385.62h20.4v-80H797l-10.54 40.64L797 385.62z" fill="#2e73b8"/><path d="M797 385.62l-14.7-7.92-4.6-31.44 4.6-32.72 14.66-7.92.04 80z" fill="#205b99"/><path d="M837.42 357.46l-5.46 2.9-14.56 3.4H797l-14.25-3.4-.26-.07-.2-.08v-12.05l14.7 1.15h20.4l14.56-1.15 8.2-.77h-2.74v-3.6h2.66l-8.12-.64-14.56-.5h-20.28l-14.82.38v-12.2h.2l14.62-3.77h20.28l14.56 3.78 5.46 3.14v-2l2.73-.25-8.2-6.22-14.55-5.13h-20.28l-14.82 5.32v-12.18l-7.15 9.74v8.47l2.08.26v2.06l-2.08 1.28v8.47h2.08v3.6l-2.08.06v8.4l2.08 1.28v2.12l-2.08.26v8.4l7.15 9.74v-12.18l14.7 4.94h20.4l14.56-4.94 8.2-5.96-2.74-.26v-1.8z" fill="#19486f"/><use xlink:href="#c" transform="matrix(1,0,0,1,775.1481882531068,385.62499996965516) translate(-8.12540253704632 11.510316745062529)"/><use xlink:href="#q" transform="matrix(1,0,0,1,775.1481882531068,385.62499996965516) translate(14.23578572289286 28.775791862656323)"/><path d="M807.65 447.12v-43" stroke="#000" stroke-width="2" fill="none"/><path d="M807.65 462.4L803 448.1h9.28zM807.65 388.86l4.63 14.27H803z" stroke="#000" stroke-width="2"/><path d="M647.65 315.62c0-16.56 13.43-30 30-30h187.5c16.57 0 30 13.44 30 30v220c0 16.57-13.43 30-30 30h-187.5c-16.57 0-30-13.43-30-30z" fill="none"/><path d="M648.65 315.62c0 .56-.45 1-1 1s-1-.44-1-1c0-.55.45-1 1-1s1 .45 1 1zm1.1-7.74c0 .56-.44 1-1 1-.54 0-1-.44-1-1 0-.55.46-1 1-1 .56 0 1 .45 1 1zm2.96-7.23c0 .55-.44 1-1 1-.55 0-1-.45-1-1s.45-1 1-1c.56 0 1 .45 1 1zm4.8-6.18c0 .55-.45 1-1 1s-1-.45-1-1 .45-1 1-1 1 .45 1 1zm6.2-4.76c0 .56-.46 1-1 1-.56 0-1-.44-1-1 0-.54.44-1 1-1 .54 0 1 .46 1 1zm7.2-3c0 .54-.45 1-1 1s-1-.46-1-1c0-.56.45-1 1-1s1 .44 1 1zm7.75-1.08c0 .56-.45 1-1 1s-1-.44-1-1c0-.55.45-1 1-1s1 .45 1 1zm8.15 0c0 .56-.45 1-1 1s-1-.44-1-1c0-.55.45-1 1-1s1 .45 1 1zm8.15 0c0 .56-.45 1-1 1s-1-.44-1-1c0-.55.45-1 1-1s1 .45 1 1zm8.15 0c0 .56-.44 1-1 1-.55 0-1-.44-1-1 0-.55.45-1 1-1 .56 0 1 .45 1 1zm8.16 0c0 .56-.45 1-1 1-.56 0-1-.44-1-1 0-.55.44-1 1-1 .55 0 1 .45 1 1zm8.15 0c0 .56-.44 1-1 1-.54 0-1-.44-1-1 0-.55.46-1 1-1 .56 0 1 .45 1 1zm8.16 0c0 .56-.45 1-1 1s-1-.44-1-1c0-.55.45-1 1-1s1 .45 1 1zm8.15 0c0 .56-.43 1-1 1-.54 0-1-.44-1-1 0-.55.46-1 1-1 .57 0 1 .45 1 1zm8.17 0c0 .56-.45 1-1 1-.56 0-1-.44-1-1 0-.55.44-1 1-1 .55 0 1 .45 1 1zm8.15 0c0 .56-.45 1-1 1s-1-.44-1-1c0-.55.45-1 1-1s1 .45 1 1zm8.15 0c0 .56-.45 1-1 1s-1-.44-1-1c0-.55.45-1 1-1s1 .45 1 1zm8.15 0c0 .56-.45 1-1 1s-1-.44-1-1c0-.55.45-1 1-1s1 .45 1 1zm8.15 0c0 .56-.44 1-1 1-.55 0-1-.44-1-1 0-.55.45-1 1-1 .56 0 1 .45 1 1zm8.16 0c0 .56-.45 1-1 1-.56 0-1-.44-1-1 0-.55.44-1 1-1 .55 0 1 .45 1 1zm8.15 0c0 .56-.45 1-1 1s-1-.44-1-1c0-.55.45-1 1-1s1 .45 1 1zm8.15 0c0 .56-.45 1-1 1s-1-.44-1-1c0-.55.45-1 1-1s1 .45 1 1zm8.15 0c0 .56-.44 1-1 1-.55 0-1-.44-1-1 0-.55.45-1 1-1 .56 0 1 .45 1 1zm8.16 0c0 .56-.45 1-1 1-.56 0-1-.44-1-1 0-.55.44-1 1-1 .55 0 1 .45 1 1zm8.15 0c0 .56-.46 1-1 1-.56 0-1-.44-1-1 0-.55.44-1 1-1 .54 0 1 .45 1 1zm8.14 0c0 .56-.45 1-1 1s-1-.44-1-1c0-.55.45-1 1-1s1 .45 1 1zm8.15 0c0 .56-.46 1-1 1-.56 0-1-.44-1-1 0-.55.44-1 1-1 .54 0 1 .45 1 1zm8.14 0c0 .56-.44 1-1 1-.55 0-1-.44-1-1 0-.55.45-1 1-1 .56 0 1 .45 1 1zm8.16 0c0 .56-.45 1-1 1-.56 0-1-.44-1-1 0-.55.44-1 1-1 .55 0 1 .45 1 1zm8.15 0c0 .56-.45 1-1 1s-1-.44-1-1c0-.55.45-1 1-1s1 .45 1 1zm7.74 1.12c0 .55-.46 1-1 1-.56 0-1-.45-1-1s.44-1 1-1c.54 0 1 .45 1 1zm7.22 2.94c0 .56-.44 1-1 1-.55 0-1-.44-1-1 0-.55.45-1 1-1 .56 0 1 .45 1 1zm6.18 4.8c0 .55-.44 1-1 1-.55 0-1-.45-1-1 0-.56.45-1 1-1 .56 0 1 .44 1 1zm4.76 6.18c0 .56-.45 1-1 1s-1-.44-1-1c0-.55.45-1 1-1s1 .45 1 1zm3.03 7.2c0 .57-.46 1-1 1-.57 0-1-.43-1-1 0-.54.43-1 1-1 .54 0 1 .46 1 1zm1.05 7.76c0 .56-.45 1-1 1s-1-.44-1-1c0-.55.45-1 1-1s1 .45 1 1zm0 7.86c0 .55-.45 1-1 1s-1-.45-1-1 .45-1 1-1 1 .45 1 1zm0 7.86c0 .55-.45 1-1 1s-1-.45-1-1 .45-1 1-1 1 .45 1 1zm0 7.86c0 .55-.45 1-1 1s-1-.45-1-1c0-.56.45-1 1-1s1 .44 1 1zm0 7.85c0 .56-.45 1-1 1s-1-.44-1-1c0-.55.45-1 1-1s1 .45 1 1zm0 7.86c0 .56-.45 1-1 1s-1-.44-1-1c0-.54.45-1 1-1s1 .46 1 1zm0 7.87c0 .55-.45 1-1 1s-1-.45-1-1 .45-1 1-1 1 .45 1 1zm0 7.85c0 .56-.45 1-1 1s-1-.44-1-1c0-.55.45-1 1-1s1 .45 1 1zm0 7.86c0 .55-.45 1-1 1s-1-.45-1-1 .45-1 1-1 1 .45 1 1zm0 7.86c0 .55-.45 1-1 1s-1-.45-1-1 .45-1 1-1 1 .45 1 1zm0 7.86c0 .55-.45 1-1 1s-1-.45-1-1c0-.56.45-1 1-1s1 .44 1 1zm0 7.85c0 .56-.45 1-1 1s-1-.44-1-1c0-.55.45-1 1-1s1 .45 1 1zm0 7.86c0 .56-.45 1-1 1s-1-.44-1-1c0-.54.45-1 1-1s1 .46 1 1zm0 7.87c0 .55-.45 1-1 1s-1-.45-1-1 .45-1 1-1 1 .45 1 1zm0 7.85c0 .56-.45 1-1 1s-1-.44-1-1c0-.55.45-1 1-1s1 .45 1 1zm0 7.86c0 .55-.45 1-1 1s-1-.45-1-1 .45-1 1-1 1 .45 1 1zm0 7.86c0 .55-.45 1-1 1s-1-.45-1-1 .45-1 1-1 1 .45 1 1zm0 7.86c0 .55-.45 1-1 1s-1-.45-1-1c0-.56.45-1 1-1s1 .44 1 1zm0 7.85c0 .56-.45 1-1 1s-1-.44-1-1c0-.55.45-1 1-1s1 .45 1 1zm0 7.86c0 .56-.45 1-1 1s-1-.44-1-1c0-.54.45-1 1-1s1 .46 1 1zm0 7.87c0 .55-.45 1-1 1s-1-.45-1-1 .45-1 1-1 1 .45 1 1zm0 7.85c0 .56-.45 1-1 1s-1-.44-1-1c0-.55.45-1 1-1s1 .45 1 1zm0 7.86c0 .55-.45 1-1 1s-1-.45-1-1 .45-1 1-1 1 .45 1 1zm0 7.86c0 .55-.45 1-1 1s-1-.45-1-1 .45-1 1-1 1 .45 1 1zm0 7.86c0 .55-.45 1-1 1s-1-.45-1-1c0-.56.45-1 1-1s1 .44 1 1zm0 7.85c0 .56-.45 1-1 1s-1-.44-1-1c0-.55.45-1 1-1s1 .45 1 1zm0 7.86c0 .56-.45 1-1 1s-1-.44-1-1c0-.54.45-1 1-1s1 .46 1 1zm0 7.87c0 .55-.45 1-1 1s-1-.45-1-1 .45-1 1-1 1 .45 1 1zm0 7.85c0 .56-.45 1-1 1s-1-.44-1-1c0-.55.45-1 1-1s1 .45 1 1zm-1.12 7.75c0 .55-.44 1-1 1-.55 0-1-.45-1-1 0-.56.45-1 1-1 .56 0 1 .44 1 1zm-2.94 7.23c0 .55-.46 1-1 1-.56 0-1-.45-1-1s.44-1 1-1c.54 0 1 .45 1 1zm-4.8 6.18c0 .55-.45 1-1 1s-1-.45-1-1 .45-1 1-1 1 .45 1 1zm-6.2 4.76c0 .55-.44 1-1 1-.54 0-1-.45-1-1s.46-1 1-1c.56 0 1 .45 1 1zm-7.2 3.02c0 .55-.45 1-1 1s-1-.45-1-1 .45-1 1-1 1 .45 1 1zm-7.75 1.06c0 .56-.45 1-1 1s-1-.44-1-1c0-.55.45-1 1-1s1 .45 1 1zm-8.15 0c0 .56-.45 1-1 1-.56 0-1-.44-1-1 0-.55.44-1 1-1 .55 0 1 .45 1 1zm-8.16 0c0 .56-.44 1-1 1-.55 0-1-.44-1-1 0-.55.45-1 1-1 .56 0 1 .45 1 1zm-8.15 0c0 .56-.46 1-1 1-.56 0-1-.44-1-1 0-.55.44-1 1-1 .54 0 1 .45 1 1zm-8.16 0c0 .56-.45 1-1 1s-1-.44-1-1c0-.55.45-1 1-1s1 .45 1 1zm-8.15 0c0 .56-.46 1-1 1-.56 0-1-.44-1-1 0-.55.44-1 1-1 .54 0 1 .45 1 1zm-8.16 0c0 .56-.45 1-1 1-.56 0-1-.44-1-1 0-.55.44-1 1-1 .55 0 1 .45 1 1zm-8.16 0c0 .56-.44 1-1 1-.55 0-1-.44-1-1 0-.55.45-1 1-1 .56 0 1 .45 1 1zm-8.15 0c0 .56-.45 1-1 1s-1-.44-1-1c0-.55.45-1 1-1s1 .45 1 1zm-8.15 0c0 .56-.45 1-1 1s-1-.44-1-1c0-.55.45-1 1-1s1 .45 1 1zm-8.15 0c0 .56-.45 1-1 1-.56 0-1-.44-1-1 0-.55.44-1 1-1 .55 0 1 .45 1 1zm-8.16 0c0 .56-.44 1-1 1-.55 0-1-.44-1-1 0-.55.45-1 1-1 .56 0 1 .45 1 1zm-8.15 0c0 .56-.45 1-1 1s-1-.44-1-1c0-.55.45-1 1-1s1 .45 1 1zm-8.15 0c0 .56-.45 1-1 1s-1-.44-1-1c0-.55.45-1 1-1s1 .45 1 1zm-8.15 0c0 .56-.45 1-1 1s-1-.44-1-1c0-.55.45-1 1-1s1 .45 1 1zm-8.15 0c0 .56-.45 1-1 1-.56 0-1-.44-1-1 0-.55.44-1 1-1 .55 0 1 .45 1 1zm-8.16 0c0 .56-.43 1-1 1-.54 0-1-.44-1-1 0-.55.46-1 1-1 .57 0 1 .45 1 1zm-8.14 0c0 .56-.45 1-1 1s-1-.44-1-1c0-.55.45-1 1-1s1 .45 1 1zm-8.15 0c0 .56-.44 1-1 1-.54 0-1-.44-1-1 0-.55.46-1 1-1 .56 0 1 .45 1 1zm-8.14 0c0 .56-.45 1-1 1-.56 0-1-.44-1-1 0-.55.44-1 1-1 .55 0 1 .45 1 1zm-8.16 0c0 .56-.44 1-1 1-.55 0-1-.44-1-1 0-.55.45-1 1-1 .56 0 1 .45 1 1zm-8.15 0c0 .56-.45 1-1 1s-1-.44-1-1c0-.55.45-1 1-1s1 .45 1 1zm-8.15 0c0 .56-.45 1-1 1s-1-.44-1-1c0-.55.45-1 1-1s1 .45 1 1zm-8.15 0c0 .56-.45 1-1 1s-1-.44-1-1c0-.55.45-1 1-1s1 .45 1 1zm-7.74-1.1c0 .54-.44 1-1 1-.55 0-1-.46-1-1 0-.56.45-1 1-1 .56 0 1 .44 1 1zm-7.23-2.95c0 .55-.44 1-1 1-.55 0-1-.45-1-1 0-.56.45-1 1-1 .56 0 1 .44 1 1zm-6.18-4.8c0 .56-.45 1-1 1-.56 0-1-.44-1-1 0-.55.44-1 1-1 .55 0 1 .45 1 1zm-4.76-6.18c0 .54-.45 1-1 1-.56 0-1-.46-1-1 0-.57.44-1 1-1 .55 0 1 .43 1 1zm-3.03-7.22c0 .55-.44 1-1 1-.54 0-1-.45-1-1 0-.56.46-1 1-1 .56 0 1 .44 1 1zm-1.05-7.76c0 .56-.45 1-1 1s-1-.44-1-1c0-.55.45-1 1-1s1 .45 1 1zm0-7.85c0 .55-.45 1-1 1s-1-.45-1-1 .45-1 1-1 1 .45 1 1zm0-7.86c0 .56-.45 1-1 1s-1-.44-1-1c0-.54.45-1 1-1s1 .46 1 1zm0-7.85c0 .56-.45 1-1 1s-1-.44-1-1c0-.55.45-1 1-1s1 .45 1 1zm0-7.85c0 .55-.45 1-1 1s-1-.45-1-1c0-.56.45-1 1-1s1 .44 1 1zm0-7.86c0 .55-.45 1-1 1s-1-.45-1-1 .45-1 1-1 1 .45 1 1zm0-7.86c0 .55-.45 1-1 1s-1-.45-1-1 .45-1 1-1 1 .45 1 1zm0-7.86c0 .56-.45 1-1 1s-1-.44-1-1c0-.55.45-1 1-1s1 .45 1 1zm0-7.85c0 .55-.45 1-1 1s-1-.45-1-1 .45-1 1-1 1 .45 1 1zm0-7.86c0 .56-.45 1-1 1s-1-.44-1-1c0-.54.45-1 1-1s1 .46 1 1zm0-7.85c0 .56-.45 1-1 1s-1-.44-1-1c0-.55.45-1 1-1s1 .45 1 1zm0-7.85c0 .55-.45 1-1 1s-1-.45-1-1c0-.56.45-1 1-1s1 .44 1 1zm0-7.86c0 .55-.45 1-1 1s-1-.45-1-1 .45-1 1-1 1 .45 1 1zm0-7.86c0 .55-.45 1-1 1s-1-.45-1-1 .45-1 1-1 1 .45 1 1zm0-7.86c0 .56-.45 1-1 1s-1-.44-1-1c0-.55.45-1 1-1s1 .45 1 1zm0-7.85c0 .55-.45 1-1 1s-1-.45-1-1 .45-1 1-1 1 .45 1 1zm0-7.86c0 .56-.45 1-1 1s-1-.44-1-1c0-.54.45-1 1-1s1 .46 1 1zm0-7.85c0 .56-.45 1-1 1s-1-.44-1-1c0-.55.45-1 1-1s1 .45 1 1zm0-7.85c0 .55-.45 1-1 1s-1-.45-1-1c0-.56.45-1 1-1s1 .44 1 1zm0-7.86c0 .55-.45 1-1 1s-1-.45-1-1 .45-1 1-1 1 .45 1 1zm0-7.86c0 .55-.45 1-1 1s-1-.45-1-1 .45-1 1-1 1 .45 1 1zm0-7.86c0 .56-.45 1-1 1s-1-.44-1-1c0-.55.45-1 1-1s1 .45 1 1zm0-7.85c0 .55-.45 1-1 1s-1-.45-1-1 .45-1 1-1 1 .45 1 1zm0-7.86c0 .56-.45 1-1 1s-1-.44-1-1c0-.54.45-1 1-1s1 .46 1 1zm0-7.85c0 .56-.45 1-1 1s-1-.44-1-1c0-.55.45-1 1-1s1 .45 1 1zm0-7.85c0 .55-.45 1-1 1s-1-.45-1-1c0-.56.45-1 1-1s1 .44 1 1zm0-7.86c0 .55-.45 1-1 1s-1-.45-1-1 .45-1 1-1 1 .45 1 1zm0-7.86c0 .55-.45 1-1 1s-1-.45-1-1 .45-1 1-1 1 .45 1 1z" fill="#474747"/><path d="M722.86 367.37l4.36-3.07 4.6-2.6 4.37-1.98 4.48-1.52 5-1.2 6.52-.9 4.45-.13" stroke="#000" stroke-width="2" fill="none"/><path d="M723.45 368.17l-1 .7-.35-.85-.67-.87.87-.62z"/><path d="M771.9 355.7l-14.16 4.9-.18-9.28z" stroke="#000" stroke-width="2"/><defs><path d="M197 0v-115H63V0H30v-248h33v105h134v-105h34V0h-34" id="r"/><path d="M141-36C126-15 110 5 73 4 37 3 15-17 15-53c-1-64 63-63 125-63 3-35-9-54-41-54-24 1-41 7-42 31l-33-3c5-37 33-52 76-52 45 0 72 20 72 64v82c-1 20 7 32 28 27v20c-31 9-61-2-59-35zM48-53c0 20 12 33 32 33 41-3 63-29 60-74-43 2-92-5-92 41" id="s"/><path d="M117-194c89-4 53 116 60 194h-32v-121c0-31-8-49-39-48C34-167 62-67 57 0H25l-1-190h30c1 10-1 24 2 32 11-22 29-35 61-36" id="t"/><path d="M85-194c31 0 48 13 60 33l-1-100h32l1 261h-30c-2-10 0-23-3-31C134-8 116 4 85 4 32 4 16-35 15-94c0-66 23-100 70-100zm9 24c-40 0-46 34-46 75 0 40 6 74 45 74 42 0 51-32 51-76 0-42-9-74-50-73" id="u"/><path d="M24-231v-30h32v30H24zM24 0v-190h32V0H24" id="v"/><g id="a"><use transform="matrix(0.039966377587022664,0,0,0.039966377587022664,0,0)" xlink:href="#r"/><use transform="matrix(0.039966377587022664,0,0,0.039966377587022664,10.35129179503887,0)" xlink:href="#s"/><use transform="matrix(0.039966377587022664,0,0,0.039966377587022664,18.344567312443402,0)" xlink:href="#t"/><use transform="matrix(0.039966377587022664,0,0,0.039966377587022664,26.337842829847936,0)" xlink:href="#u"/><use transform="matrix(0.039966377587022664,0,0,0.039966377587022664,34.33111834725247,0)" xlink:href="#v"/><use transform="matrix(0.039966377587022664,0,0,0.039966377587022664,37.48846217662726,0)" xlink:href="#t"/></g><path d="M205 0l-28-72H64L36 0H1l101-248h38L239 0h-34zm-38-99l-47-123c-12 45-31 82-46 123h93" id="w"/><path d="M30-248c87 1 191-15 191 75 0 78-77 80-158 76V0H30v-248zm33 125c57 0 124 11 124-50 0-59-68-47-124-48v98" id="x"/><g id="b"><use transform="matrix(0.039966377587022664,0,0,0.039966377587022664,0,0)" xlink:href="#w"/><use transform="matrix(0.039966377587022664,0,0,0.039966377587022664,9.591930620885439,0)" xlink:href="#x"/><use transform="matrix(0.039966377587022664,0,0,0.039966377587022664,19.183861241770877,0)" xlink:href="#x"/></g><path d="M135-143c-3-34-86-38-87 0 15 53 115 12 119 90S17 21 10-45l28-5c4 36 97 45 98 0-10-56-113-15-118-90-4-57 82-63 122-42 12 7 21 19 24 35" id="y"/><path d="M177-190C167-65 218 103 67 71c-23-6-38-20-44-43l32-5c15 47 100 32 89-28v-30C133-14 115 1 83 1 29 1 15-40 15-95c0-56 16-97 71-98 29-1 48 16 59 35 1-10 0-23 2-32h30zM94-22c36 0 50-32 50-73 0-42-14-75-50-75-39 0-46 34-46 75s6 73 46 73" id="z"/><path d="M210-169c-67 3-38 105-44 169h-31v-121c0-29-5-50-35-48C34-165 62-65 56 0H25l-1-190h30c1 10-1 24 2 32 10-44 99-50 107 0 11-21 27-35 58-36 85-2 47 119 55 194h-31v-121c0-29-5-49-35-48" id="A"/><path d="M100-194c63 0 86 42 84 106H49c0 40 14 67 53 68 26 1 43-12 49-29l28 8c-11 28-37 45-77 45C44 4 14-33 15-96c1-61 26-98 85-98zm52 81c6-60-76-77-97-28-3 7-6 17-6 28h103" id="B"/><path d="M59-47c-2 24 18 29 38 22v24C64 9 27 4 27-40v-127H5v-23h24l9-43h21v43h35v23H59v120" id="C"/><g id="c"><use transform="matrix(0.039966377587022664,0,0,0.039966377587022664,0,0)" xlink:href="#w"/><use transform="matrix(0.039966377587022664,0,0,0.039966377587022664,9.591930620885439,0)" xlink:href="#y"/><use transform="matrix(0.039966377587022664,0,0,0.039966377587022664,16.78587858654952,0)" xlink:href="#y"/><use transform="matrix(0.039966377587022664,0,0,0.039966377587022664,23.9798265522136,0)" xlink:href="#v"/><use transform="matrix(0.039966377587022664,0,0,0.039966377587022664,27.13717038158839,0)" xlink:href="#z"/><use transform="matrix(0.039966377587022664,0,0,0.039966377587022664,35.130445898992924,0)" xlink:href="#t"/><use transform="matrix(0.039966377587022664,0,0,0.039966377587022664,43.12372141639745,0)" xlink:href="#A"/><use transform="matrix(0.039966377587022664,0,0,0.039966377587022664,55.07366831491723,0)" xlink:href="#B"/><use transform="matrix(0.039966377587022664,0,0,0.039966377587022664,63.066943832321776,0)" xlink:href="#t"/><use transform="matrix(0.039966377587022664,0,0,0.039966377587022664,71.0602193497263,0)" xlink:href="#C"/><use transform="matrix(0.039966377587022664,0,0,0.039966377587022664,75.05685710842856,0)" xlink:href="#y"/></g><path d="M96-169c-40 0-48 33-48 73s9 75 48 75c24 0 41-14 43-38l32 2c-6 37-31 61-74 61-59 0-76-41-82-99-10-93 101-131 147-64 4 7 5 14 7 22l-32 3c-4-21-16-35-41-35" id="D"/><path d="M100-194c62-1 85 37 85 99 1 63-27 99-86 99S16-35 15-95c0-66 28-99 85-99zM99-20c44 1 53-31 53-75 0-43-8-75-51-75s-53 32-53 75 10 74 51 75" id="E"/><path d="M24 0v-261h32V0H24" id="F"/><g id="d"><use transform="matrix(0.039966377587022664,0,0,0.039966377587022664,0,0)" xlink:href="#D"/><use transform="matrix(0.039966377587022664,0,0,0.039966377587022664,7.19394796566408,0)" xlink:href="#E"/><use transform="matrix(0.039966377587022664,0,0,0.039966377587022664,15.187223483068614,0)" xlink:href="#F"/><use transform="matrix(0.039966377587022664,0,0,0.039966377587022664,18.344567312443406,0)" xlink:href="#F"/><use transform="matrix(0.039966377587022664,0,0,0.039966377587022664,21.501911141818198,0)" xlink:href="#B"/><use transform="matrix(0.039966377587022664,0,0,0.039966377587022664,29.495186659222732,0)" xlink:href="#D"/><use transform="matrix(0.039966377587022664,0,0,0.039966377587022664,36.68913462488681,0)" xlink:href="#C"/><use transform="matrix(0.039966377587022664,0,0,0.039966377587022664,40.685772383589075,0)" xlink:href="#v"/><use transform="matrix(0.039966377587022664,0,0,0.039966377587022664,43.843116212963864,0)" xlink:href="#E"/><use transform="matrix(0.039966377587022664,0,0,0.039966377587022664,51.8363917303684,0)" xlink:href="#t"/></g><path d="M30 0v-248h33v221h125V0H30" id="G"/><path d="M108 0H70L1-190h34L89-25l56-165h34" id="H"/><path d="M185-189c-5-48-123-54-124 2 14 75 158 14 163 119 3 78-121 87-175 55-17-10-28-26-33-46l33-7c5 56 141 63 141-1 0-78-155-14-162-118-5-82 145-84 179-34 5 7 8 16 11 25" id="I"/><path d="M114-163C36-179 61-72 57 0H25l-1-190h30c1 12-1 29 2 39 6-27 23-49 58-41v29" id="J"/><g id="e"><use transform="matrix(0.039966377587022664,0,0,0.039966377587022664,0,0)" xlink:href="#G"/><use transform="matrix(0.039966377587022664,0,0,0.039966377587022664,7.993275517404533,0)" xlink:href="#v"/><use transform="matrix(0.039966377587022664,0,0,0.039966377587022664,11.150619346779322,0)" xlink:href="#H"/><use transform="matrix(0.039966377587022664,0,0,0.039966377587022664,18.344567312443402,0)" xlink:href="#B"/><use transform="matrix(0.039966377587022664,0,0,0.039966377587022664,26.337842829847936,0)" xlink:href="#I"/><use transform="matrix(0.039966377587022664,0,0,0.039966377587022664,35.92977345073338,0)" xlink:href="#B"/><use transform="matrix(0.039966377587022664,0,0,0.039966377587022664,43.92304896813792,0)" xlink:href="#J"/><use transform="matrix(0.039966377587022664,0,0,0.039966377587022664,48.6790479009936,0)" xlink:href="#H"/><use transform="matrix(0.039966377587022664,0,0,0.039966377587022664,55.872995866657696,0)" xlink:href="#B"/><use transform="matrix(0.039966377587022664,0,0,0.039966377587022664,63.86627138406222,0)" xlink:href="#J"/></g><path d="M33 0v-248h34V0H33" id="K"/><g id="f"><use transform="matrix(0.039966377587022664,0,0,0.039966377587022664,0,0)" xlink:href="#r"/><use transform="matrix(0.039966377587022664,0,0,0.039966377587022664,10.35129179503887,0)" xlink:href="#s"/><use transform="matrix(0.039966377587022664,0,0,0.039966377587022664,18.344567312443402,0)" xlink:href="#t"/><use transform="matrix(0.039966377587022664,0,0,0.039966377587022664,26.337842829847936,0)" xlink:href="#u"/><use transform="matrix(0.039966377587022664,0,0,0.039966377587022664,34.33111834725247,0)" xlink:href="#K"/><use transform="matrix(0.039966377587022664,0,0,0.039966377587022664,38.327756105954734,0)" xlink:href="#t"/></g><g id="g"><use transform="matrix(0.039966377587022664,0,0,0.039966377587022664,0,0)" xlink:href="#w"/><use transform="matrix(0.039966377587022664,0,0,0.039966377587022664,9.591930620885439,0)" xlink:href="#y"/><use transform="matrix(0.039966377587022664,0,0,0.039966377587022664,16.78587858654952,0)" xlink:href="#y"/><use transform="matrix(0.039966377587022664,0,0,0.039966377587022664,23.9798265522136,0)" xlink:href="#v"/><use transform="matrix(0.039966377587022664,0,0,0.039966377587022664,27.13717038158839,0)" xlink:href="#z"/><use transform="matrix(0.039966377587022664,0,0,0.039966377587022664,35.130445898992924,0)" xlink:href="#t"/><use transform="matrix(0.039966377587022664,0,0,0.039966377587022664,43.12372141639745,0)" xlink:href="#A"/><use transform="matrix(0.039966377587022664,0,0,0.039966377587022664,55.07366831491723,0)" xlink:href="#B"/><use transform="matrix(0.039966377587022664,0,0,0.039966377587022664,63.066943832321776,0)" xlink:href="#t"/><use transform="matrix(0.039966377587022664,0,0,0.039966377587022664,71.0602193497263,0)" xlink:href="#C"/><use transform="matrix(0.039966377587022664,0,0,0.039966377587022664,75.05685710842856,0)" xlink:href="#y"/></g><path d="M84 4C-5 8 30-112 23-190h32v120c0 31 7 50 39 49 72-2 45-101 50-169h31l1 190h-30c-1-10 1-25-2-33-11 22-28 36-60 37" id="L"/><g id="h"><use transform="matrix(0.039966377587022664,0,0,0.039966377587022664,0,0)" xlink:href="#w"/><use transform="matrix(0.039966377587022664,0,0,0.039966377587022664,9.591930620885439,0)" xlink:href="#L"/><use transform="matrix(0.039966377587022664,0,0,0.039966377587022664,17.585206138289973,0)" xlink:href="#F"/><use transform="matrix(0.039966377587022664,0,0,0.039966377587022664,20.74254996766476,0)" xlink:href="#s"/></g><g id="i"><use transform="matrix(0.039966377587022664,0,0,0.039966377587022664,0,0)" xlink:href="#w"/><use transform="matrix(0.039966377587022664,0,0,0.039966377587022664,9.591930620885439,0)" xlink:href="#y"/><use transform="matrix(0.039966377587022664,0,0,0.039966377587022664,16.78587858654952,0)" xlink:href="#y"/><use transform="matrix(0.039966377587022664,0,0,0.039966377587022664,23.9798265522136,0)" xlink:href="#v"/><use transform="matrix(0.039966377587022664,0,0,0.039966377587022664,27.13717038158839,0)" xlink:href="#z"/><use transform="matrix(0.039966377587022664,0,0,0.039966377587022664,35.130445898992924,0)" xlink:href="#t"/><use transform="matrix(0.039966377587022664,0,0,0.039966377587022664,43.12372141639745,0)" xlink:href="#A"/><use transform="matrix(0.039966377587022664,0,0,0.039966377587022664,55.07366831491723,0)" xlink:href="#B"/><use transform="matrix(0.039966377587022664,0,0,0.039966377587022664,63.066943832321776,0)" xlink:href="#t"/><use transform="matrix(0.039966377587022664,0,0,0.039966377587022664,71.0602193497263,0)" xlink:href="#C"/><use transform="matrix(0.039966377587022664,0,0,0.039966377587022664,75.05685710842856,0)" xlink:href="#y"/></g><path d="M127-220V0H93v-220H8v-28h204v28h-85" id="M"/><path d="M115-194c55 1 70 41 70 98S169 2 115 4C84 4 66-9 55-30l1 105H24l-1-265h31l2 30c10-21 28-34 59-34zm-8 174c40 0 45-34 45-75s-6-73-45-74c-42 0-51 32-51 76 0 43 10 73 51 73" id="N"/><g id="j"><use transform="matrix(0.039966377587022664,0,0,0.039966377587022664,0,0)" xlink:href="#r"/><use transform="matrix(0.039966377587022664,0,0,0.039966377587022664,10.35129179503887,0)" xlink:href="#K"/><use transform="matrix(0.039966377587022664,0,0,0.039966377587022664,14.347929553741137,0)" xlink:href="#w"/><use transform="matrix(0.039966377587022664,0,0,0.039966377587022664,23.939860174626574,0)" xlink:href="#y"/><use transform="matrix(0.039966377587022664,0,0,0.039966377587022664,31.133808140290654,0)" xlink:href="#y"/><use transform="matrix(0.039966377587022664,0,0,0.039966377587022664,38.327756105954734,0)" xlink:href="#v"/><use transform="matrix(0.039966377587022664,0,0,0.039966377587022664,41.48509993532952,0)" xlink:href="#z"/><use transform="matrix(0.039966377587022664,0,0,0.039966377587022664,49.478375452734056,0)" xlink:href="#t"/><use transform="matrix(0.039966377587022664,0,0,0.039966377587022664,57.47165097013859,0)" xlink:href="#A"/><use transform="matrix(0.039966377587022664,0,0,0.039966377587022664,69.42159786865837,0)" xlink:href="#B"/><use transform="matrix(0.039966377587022664,0,0,0.039966377587022664,77.4148733860629,0)" xlink:href="#t"/><use transform="matrix(0.039966377587022664,0,0,0.039966377587022664,85.40814890346742,0)" xlink:href="#C"/><use transform="matrix(0.039966377587022664,0,0,0.039966377587022664,89.40478666216968,0)" xlink:href="#y"/><use transform="matrix(0.039966377587022664,0,0,0.039966377587022664,96.59873462783376,0)" xlink:href="#M"/><use transform="matrix(0.039966377587022664,0,0,0.039966377587022664,103.75271621591082,0)" xlink:href="#E"/><use transform="matrix(0.039966377587022664,0,0,0.039966377587022664,111.74599173331535,0)" xlink:href="#N"/><use transform="matrix(0.039966377587022664,0,0,0.039966377587022664,119.73926725071988,0)" xlink:href="#v"/><use transform="matrix(0.039966377587022664,0,0,0.039966377587022664,122.89661108009467,0)" xlink:href="#D"/></g><path d="M30 0v-248h187v28H63v79h144v27H63v87h162V0H30" id="O"/><g id="k"><use transform="matrix(0.039966377587022664,0,0,0.039966377587022664,0,0)" xlink:href="#O"/><use transform="matrix(0.039966377587022664,0,0,0.039966377587022664,9.591930620885439,0)" xlink:href="#H"/><use transform="matrix(0.039966377587022664,0,0,0.039966377587022664,16.78587858654952,0)" xlink:href="#B"/><use transform="matrix(0.039966377587022664,0,0,0.039966377587022664,24.779154103954053,0)" xlink:href="#t"/><use transform="matrix(0.039966377587022664,0,0,0.039966377587022664,32.77242962135858,0)" xlink:href="#C"/></g><path d="M140-251c81 0 123 46 123 126C263-53 228-8 163 1c7 30 30 48 69 40v23c-55 16-95-15-103-61C56-3 17-48 17-125c0-80 42-126 123-126zm0 227c63 0 89-41 89-101s-29-99-89-99c-61 0-89 39-89 99S79-25 140-24" id="P"/><g id="l"><use transform="matrix(0.039966377587022664,0,0,0.039966377587022664,0,0)" xlink:href="#P"/><use transform="matrix(0.039966377587022664,0,0,0.039966377587022664,11.190585724366345,0)" xlink:href="#L"/><use transform="matrix(0.039966377587022664,0,0,0.039966377587022664,19.183861241770877,0)" xlink:href="#B"/><use transform="matrix(0.039966377587022664,0,0,0.039966377587022664,27.17713675917541,0)" xlink:href="#L"/><use transform="matrix(0.039966377587022664,0,0,0.039966377587022664,35.170412276579945,0)" xlink:href="#B"/><use transform="matrix(0.039966377587022664,0,0,0.039966377587022664,43.16368779398448,0)" xlink:href="#J"/></g><g id="m"><use transform="matrix(0.039966377587022664,0,0,0.039966377587022664,0,0)" xlink:href="#G"/><use transform="matrix(0.039966377587022664,0,0,0.039966377587022664,7.993275517404533,0)" xlink:href="#v"/><use transform="matrix(0.039966377587022664,0,0,0.039966377587022664,11.150619346779322,0)" xlink:href="#H"/><use transform="matrix(0.039966377587022664,0,0,0.039966377587022664,18.344567312443402,0)" xlink:href="#B"/><use transform="matrix(0.039966377587022664,0,0,0.039966377587022664,26.337842829847936,0)" xlink:href="#O"/><use transform="matrix(0.039966377587022664,0,0,0.039966377587022664,35.92977345073338,0)" xlink:href="#H"/><use transform="matrix(0.039966377587022664,0,0,0.039966377587022664,43.12372141639745,0)" xlink:href="#B"/><use transform="matrix(0.039966377587022664,0,0,0.039966377587022664,51.116996933802,0)" xlink:href="#t"/><use transform="matrix(0.039966377587022664,0,0,0.039966377587022664,59.11027245120653,0)" xlink:href="#C"/><use transform="matrix(0.039966377587022664,0,0,0.039966377587022664,63.10691020990878,0)" xlink:href="#y"/></g><path d="M233-177c-1 41-23 64-60 70L243 0h-38l-65-103H63V0H30v-248c88 3 205-21 203 71zM63-129c60-2 137 13 137-47 0-61-80-42-137-45v92" id="Q"/><path d="M-5 72V49h209v23H-5" id="R"/><path d="M115-194c53 0 69 39 70 98 0 66-23 100-70 100C84 3 66-7 56-30L54 0H23l1-261h32v101c10-23 28-34 59-34zm-8 174c40 0 45-34 45-75 0-40-5-75-45-74-42 0-51 32-51 76 0 43 10 73 51 73" id="S"/><g id="n"><use transform="matrix(0.039966377587022664,0,0,0.039966377587022664,0,0)" xlink:href="#Q"/><use transform="matrix(0.039966377587022664,0,0,0.039966377587022664,10.35129179503887,0)" xlink:href="#B"/><use transform="matrix(0.039966377587022664,0,0,0.039966377587022664,18.344567312443402,0)" xlink:href="#u"/><use transform="matrix(0.039966377587022664,0,0,0.039966377587022664,26.337842829847936,0)" xlink:href="#v"/><use transform="matrix(0.039966377587022664,0,0,0.039966377587022664,29.495186659222732,0)" xlink:href="#y"/><use transform="matrix(0.039966377587022664,0,0,0.039966377587022664,36.689134624886805,0)" xlink:href="#R"/><use transform="matrix(0.039966377587022664,0,0,0.039966377587022664,44.68241014229134,0)" xlink:href="#x"/><use transform="matrix(0.039966377587022664,0,0,0.039966377587022664,54.27434076317678,0)" xlink:href="#L"/><use transform="matrix(0.039966377587022664,0,0,0.039966377587022664,62.26761628058131,0)" xlink:href="#S"/><use transform="matrix(0.039966377587022664,0,0,0.039966377587022664,70.26089179798585,0)" xlink:href="#I"/><use transform="matrix(0.039966377587022664,0,0,0.039966377587022664,79.85282241887128,0)" xlink:href="#L"/><use transform="matrix(0.039966377587022664,0,0,0.039966377587022664,87.84609793627581,0)" xlink:href="#S"/></g><path d="M101-251c82-7 93 87 43 132L82-64C71-53 59-42 53-27h129V0H18c2-99 128-94 128-182 0-28-16-43-45-43s-46 15-49 41l-32-3c6-41 34-60 81-64" id="T"/><g id="o"><use transform="matrix(0.039966377587022664,0,0,0.039966377587022664,0,0)" xlink:href="#r"/><use transform="matrix(0.039966377587022664,0,0,0.039966377587022664,10.35129179503887,0)" xlink:href="#K"/><use transform="matrix(0.039966377587022664,0,0,0.039966377587022664,14.347929553741137,0)" xlink:href="#T"/><use transform="matrix(0.039966377587022664,0,0,0.039966377587022664,22.34120507114567,0)" xlink:href="#w"/><use transform="matrix(0.039966377587022664,0,0,0.039966377587022664,31.933135692031108,0)" xlink:href="#w"/></g><path d="M232-93c-1 65-40 97-104 97C67 4 28-28 28-90v-158h33c8 89-33 224 67 224 102 0 64-133 71-224h33v155" id="U"/><g id="p"><use transform="matrix(0.039966377587022664,0,0,0.039966377587022664,0,0)" xlink:href="#U"/><use transform="matrix(0.039966377587022664,0,0,0.039966377587022664,10.35129179503887,0)" xlink:href="#N"/><use transform="matrix(0.039966377587022664,0,0,0.039966377587022664,18.344567312443402,0)" xlink:href="#u"/><use transform="matrix(0.039966377587022664,0,0,0.039966377587022664,26.337842829847936,0)" xlink:href="#s"/><use transform="matrix(0.039966377587022664,0,0,0.039966377587022664,34.33111834725247,0)" xlink:href="#C"/><use transform="matrix(0.039966377587022664,0,0,0.039966377587022664,38.327756105954734,0)" xlink:href="#B"/><use transform="matrix(0.039966377587022664,0,0,0.039966377587022664,46.32103162335927,0)" xlink:href="#J"/></g><g id="q"><use transform="matrix(0.039966377587022664,0,0,0.039966377587022664,0,0)" xlink:href="#x"/><use transform="matrix(0.039966377587022664,0,0,0.039966377587022664,9.591930620885439,0)" xlink:href="#s"/><use transform="matrix(0.039966377587022664,0,0,0.039966377587022664,17.585206138289973,0)" xlink:href="#J"/><use transform="matrix(0.039966377587022664,0,0,0.039966377587022664,22.34120507114567,0)" xlink:href="#y"/><use transform="matrix(0.039966377587022664,0,0,0.039966377587022664,29.53515303680975,0)" xlink:href="#B"/></g></defs></g></svg>