<svg xmlns="http://www.w3.org/2000/svg" xmlns:xlink="http://www.w3.org/1999/xlink" xmlns:lucid="lucid" width="493.31" height="473.06"><g transform="translate(-451.12923177083326 -261.99072929541967)" lucid:page-tab-id="kGH0RpsZ0XR1"><path d="M0 0h1760v1360H0z" fill="#fff"/><path d="M610.5 453.97h152.72V478h-152.7z" fill="none"/><use xlink:href="#a" transform="matrix(1,0,0,1,610.5095888684756,453.9721878862589) translate(17.049999999999997 16.1)"/><use xlink:href="#b" transform="matrix(1,0,0,1,610.5095888684756,453.9721878862589) translate(111 16.1)"/><path d="M736.58 334.26l8.72-23.18c-3.67-4.8-8.1-8.95-12.86-12.63-7.8-5.9-16.23-10.23-25.56-12.94-4.44-1.1-9.04-2.07-13.48-2.7-3.2-.5-6.43-.65-9.8-.8-5.35-.17-10.7 0-16.22.47l18.06 20.62-8.42 21.57c2.14-.16 4.44 0 6.58.16 9.96.95 18.84 4.47 26.8 10.54.76.48 1.38 1.12 2.14 1.76z" stroke="#000" stroke-opacity="0" stroke-width=".98" fill="#5ab552"/><path d="M654.2 300.2c-3.2 1.3-6.1 2.9-9.02 4.5l11.63 4.46 1.24 11.67c.46-.32.92-.64 1.22-.8 5.97-3.68 12.4-6.07 19.14-7.5l3.52-8.8-7.5-8.47c-7.04.64-13.78 2.23-20.2 4.95z" stroke="#000" stroke-opacity="0" stroke-width=".98" fill="#5ab552"/><path d="M653.9 311.4l-11.94-4.64c-3.98 2.56-7.65 5.76-11.17 9.1-5.68 5.93-10.27 12.48-13.64 19.83l13.63-2.88 8.25 10.07.92-1.93c3.68-7.35 8.73-13.43 15.16-18.22zM720.5 387c1.23-2.08 2.3-4.32 3.06-6.55l13.02 15.66 21.58-4.63c-1.22 3.36-2.6 6.72-4.44 9.9-4.44 8.64-10.25 16.16-17.6 22.4-7.35 6.54-15.77 11.18-25.1 14.05l-.47.16-16.08-13.58 4.14-18.38.3-.16c9.2-4 16.4-10.23 21.6-18.86z" stroke="#000" stroke-opacity="0" stroke-width=".98" fill="#5ab552"/><path d="M751.27 319.7c-1.07-2.07-2.44-4-3.67-5.74l-8.73 23.17-23.42 2.72c4.9 5.27 8.27 11.67 9.64 19.02 1.37 6.23 1.22 12.3-.3 18.06l13 15.66 21.6-4.64c1.37-4.32 2.3-8.8 3.05-13.27 1.23-9.6 1.07-19.03-.92-28.3-1.83-9.6-5.2-18.38-10.26-26.7zM615.63 339.05l13.93-2.88 8.27 10.07c-2.6 7.2-3.22 14.7-2 22.54.47 2.24.93 4.3 1.54 6.4l-14.7-3.36-10.72 12.46c-1.22-5.43-1.83-11.2-1.83-16.94 0-9.6 1.83-19.02 5.36-27.97 0 0 .15-.16.15-.32z" stroke="#000" stroke-opacity="0" stroke-width=".98" fill="#5ab552"/><path d="M647.93 394.03c-4.13-4.63-7.35-9.75-9.34-15.34l-14.86-3.37-10.7 12.8c.6 2.4 1.52 4.94 2.44 7.34 3.67 9.1 8.88 17.1 15.6 24.13 4.15 4.16 8.6 7.68 13.33 10.7l-.75-19 14.7-8.48c-3.83-2.24-7.36-5.27-10.42-8.8z" stroke="#000" stroke-opacity="0" stroke-width=".98" fill="#5ab552"/><path d="M661.56 404.58c3.06 1.6 6.43 2.88 10.1 3.68 7.96 1.75 15.77 1.43 23.43-.96l-4.15 18.38 15.93 13.42c-7.97 2.08-16.08 3.04-24.35 2.72-9.8-.32-18.98-2.4-28-6.23-2.3-.97-4.6-2.1-6.9-3.37l-.77-19.18z" stroke="#000" stroke-opacity="0" stroke-width=".98" fill="#5ab552"/><path d="M837.63 394.18L821 365.54c-.67-1.1-1-2.32-1-3.63 0-1.3.33-2.5 1-3.62l16.57-28.7c.64-1.14 1.53-2.04 2.66-2.7 1.14-.65 2.35-.97 3.66-.96h33.2c1.3 0 2.53.33 3.65 1 1.13.64 2.02 1.53 2.67 2.66l16.58 28.7c.66 1.12 1 2.33 1 3.63 0 1.32-.34 2.53-1 3.64l-16.58 28.7c-.65 1.14-1.54 2.02-2.67 2.68-1.12.65-2.35.98-3.65 1h-33.14c-1.3-.05-2.52-.4-3.65-1.06-1.1-.66-2-1.55-2.67-2.68zm0 0" fill="#0e62c2"/><path d="M867.87 346.43l-1.96 4.22-4.3-4.3-1.95 4.24-4.18-4.17-1.02 5.1-3.73.63-.75 3.34-4.88 1.14 4.36 4.36-4.3 1.9 4.3 4.28-4.37 1.83 28.78 28.72h3.28c1.3 0 2.53-.33 3.66-1 1.12-.64 2-1.54 2.67-2.67l11.8-20.44z" fill="#0851b0"/><path d="M864.2 357.53H857c-.15 0-.28.03-.4.1-.12.06-.22.15-.28.27-.07.12-.1.25-.1.38v7.2c0 .13.03.26.1.38.06.12.16.2.28.28.12.06.25.1.4.1h7.2c.2 0 .4-.1.53-.23.15-.13.23-.3.23-.52v-7.2c0-.13-.03-.26-.1-.38-.06-.12-.16-.2-.28-.28-.12-.06-.25-.1-.38-.1z" fill="#fff"/><path d="M875.64 356.96c.2 0 .36-.07.5-.2.13-.15.2-.3.2-.5v-1.13c0-.2-.07-.35-.2-.5-.14-.13-.3-.2-.5-.2h-3.54v-3.27c0-.14-.03-.27-.1-.4-.06-.12-.15-.2-.27-.27-.12-.07-.25-.1-.4-.1h-3.28v-3.47c0-.2-.06-.35-.2-.5-.14-.13-.3-.2-.5-.2h-1.13c-.2 0-.35.07-.5.2-.13.15-.2.3-.2.5v3.53h-3.73v-3.53c0-.2-.07-.35-.2-.5-.15-.13-.3-.2-.5-.2h-1.14c-.2 0-.36.07-.5.2-.13.15-.2.3-.2.5v3.53h-3.73v-3.53c0-.2-.06-.35-.2-.5-.14-.13-.3-.2-.5-.2h-1.14c-.2 0-.36.07-.5.2-.13.15-.2.3-.2.5v3.53h-3.28c-.14 0-.27.03-.4.1-.1.06-.2.15-.28.27-.06.12-.1.25-.1.38v3.3h-3.47c-.2 0-.35.07-.48.2-.15.14-.22.3-.22.5v1.13c0 .2.07.35.2.5.14.12.3.2.5.2h3.47v3.6h-3.48c-.2 0-.35.06-.48.2-.15.13-.22.3-.22.5v1.12c0 .2.07.35.2.5.14.12.3.2.5.2h3.47v3.72h-3.48c-.2 0-.35.06-.48.2-.15.13-.22.3-.22.5v1.13c0 .2.07.35.2.48.14.14.3.2.5.2h3.47v3.22c0 .14.03.26.1.4.06.1.16.2.28.27.12.06.25.1.4.1H853v3.53c0 .2.07.35.2.5.14.12.3.2.5.2h1.13c.2 0 .36-.08.5-.2.14-.15.2-.3.2-.5v-3.54h3.73v3.54c0 .2.07.35.2.5.14.12.3.2.5.2h1.2c.2 0 .36-.08.5-.2.13-.15.2-.3.2-.5v-3.54h3.73v3.54c0 .2.05.35.2.5.13.12.3.2.5.2h1.12c.2 0 .36-.08.5-.2.13-.15.2-.3.2-.5v-3.54h3.3c.2 0 .37-.08.52-.22.15-.15.23-.33.23-.54v-3.28h3.54c.2 0 .36-.06.5-.2s.2-.3.2-.5v-1.13c0-.2-.06-.36-.2-.5-.14-.13-.3-.2-.5-.2h-3.53v-3.66h3.54c.2 0 .36-.07.5-.2.14-.14.2-.3.2-.5v-1.12c0-.13 0-.24-.06-.35-.06-.1-.13-.2-.24-.26-.1-.05-.2-.08-.33-.08h-3.6v-3.66zm-6.13 13.88H851.7v-17.86h17.83zm0 0z" fill="#fff"/><use xlink:href="#c" transform="matrix(1,0,0,1,820,402.90557460020045) translate(-4.1748046875 16.69921875)"/><path d="M822.5 460h76v76.02h-76V460z" stroke="#fff" stroke-opacity="0" stroke-width="2" fill="#3b48cc"/><path d="M863.1 511.95h-1.33c-.56 0-1-.45-1-1v-22.58c0-.56.44-1 1-1h11.97c.3 0 .56.12.76.34l3.03 3.67-1.42 1.3-2.8-3.3h-10.56V510h.35z" stroke="#fff" stroke-opacity="0" stroke-width="2" fill="#fff"/><path d="M881.6 515.62h-16.38c-.56 0-1-.45-1-1v-22.58c0-.56.44-1 1-1h12.63c.28 0 .5.1.7.3l3.75 3.78c.18.2.27.4.27.68v18.83c-.02.54-.44.96-.97 1zm-15.4-1.9h14.42V496.2l-3.17-3.17H866.2z" stroke="#fff" stroke-opacity="0" stroke-width="2" fill="#fff"/><path d="M881.6 497.8h-4.75c-.56 0-1.02-.47-1.02-1.02V492h1.94v3.8h3.8zM872.54 510.32h-.64c-.52.02-.96-.18-1.3-.58-.42-.62-.55-1.3-.42-2.04-.05-1.8-1.07-2.1-1.07-2.1-.5-.2-.78-.77-.58-1.3.1-.28.3-.48.6-.6.08 0 1-.36 1-2.14 0-1.07.5-2.25 1.7-2.3h.66v1.96h-.33v.34c.07 1.18-.26 2.2-1 3.1.74.93 1.07 1.95 1 3.13v.61h.44zM875.26 510.32v-1.94h.38v-.33c-.08-1.18.26-2.2 1-3.12-.74-.9-1.07-1.94-1-3.1v-.2-.42h-.44v-1.94h.64c.52-.02.96.2 1.3.58.4.62.55 1.3.4 2.03 0 1.72 1.03 2.03 1.03 2.1.44.13.72.54.7 1 0 .45-.3.82-.72.93-.08 0-1.02.37-1.02 2.16 0 1.06-.5 2.25-1.68 2.28zM855.15 487.57c-8.1 0-16.73-2.5-16.73-7.1s8.6-7.1 16.73-7.1c8.14 0 16.74 2.5 16.74 7.1s-8.65 7.1-16.75 7.1zm0-12.3c-8.7 0-14.8 2.74-14.8 5.2 0 2.43 6.1 5.14 14.8 5.14 8.7 0 14.8-2.7 14.8-5.14 0-2.45-6.1-5.18-14.8-5.18z" stroke="#fff" stroke-opacity="0" stroke-width="2" fill="#fff"/><path d="M869.93 480.45h1.95v6.15h-1.95v-6.15zM855.15 522.68c-8.1 0-16.73-2.5-16.73-7.1v-35.13h1.94v35.1c0 2.44 6.1 5.2 14.8 5.2 8.7 0 14.8-2.76 14.8-5.2h1.93c0 4.64-8.65 7.13-16.75 7.13z" stroke="#fff" stroke-opacity="0" stroke-width="2" fill="#fff"/><path d="M855.18 499.84c-9.52 0-16.7-3.04-16.7-7.1h1.97c0 2.45 6.1 5.18 14.73 5.18 1.55 0 2.85-.08 4.38-.25l.22 1.93c-1.62.18-2.98.25-4.6.24zM855.2 511.9c-9.54 0-16.7-3.04-16.7-7.1h1.95c0 2.45 6.08 5.18 14.74 5.18 1.52 0 2.82-.07 4.35-.24l.22 1.95c-1.6.16-2.98.2-4.58.2z" stroke="#fff" stroke-opacity="0" stroke-width="2" fill="#fff"/><use xlink:href="#d" transform="matrix(1,0,0,1,792.48637917678,545.0185414091608) translate(6.100000000000001 14.4)"/><use xlink:href="#e" transform="matrix(1,0,0,1,792.48637917678,545.0185414091608) translate(90.94999999999999 14.4)"/><path d="M490.75 394.18l-16.43-28.64c-.66-1.1-1-2.32-1-3.63 0-1.3.34-2.5 1-3.62l16.37-28.7c.62-1.14 1.5-2.04 2.62-2.7 1.12-.65 2.32-.97 3.6-.96h32.8c1.3 0 2.5.33 3.62 1 1.1.64 2 1.53 2.64 2.66l16.37 28.7c.66 1.12.98 2.33.98 3.63 0 1.32-.32 2.53-.98 3.64l-16.37 28.7c-.65 1.14-1.53 2.02-2.64 2.68-1.1.65-2.32.98-3.6 1H497c-1.3-.05-2.5-.4-3.6-1.06s-2-1.55-2.65-2.68zm0 0" fill="#0e62c2"/><path d="M532.17 352.6l-2.37 2.34.5 14.9-2.13 3.15-1.24-1.28h1.12v-5.17l-5.5-5.55-3.94 2 .14.45-14.12-14.2-6.75 3.42-.8 7 2.3 12.75 3.37 3.34-1.43 2.4 19.5 19.68h8.93c1.3 0 2.5-.33 3.6-1 1.12-.64 2-1.53 2.65-2.66l13.68-23.9z" fill="#0851b0"/><path d="M501.25 378.03l3.3-3.34-4.93-5.06v-15.52l4.94-5.04-3.3-3.35-6.64 6.7v18.9z" fill="#fff"/><path d="M504 361.88c0-1.33 1.05-2.4 2.37-2.4 1.3 0 2.37 1.07 2.37 2.4 0 1.32-1.06 2.4-2.37 2.4-1.32 0-2.38-1.08-2.38-2.4zM511 361.88c0-1.33 1.05-2.4 2.37-2.4 1.3 0 2.37 1.07 2.37 2.4 0 1.32-1.06 2.4-2.37 2.4-1.32 0-2.38-1.08-2.38-2.4zM518 361.88c0-1.33 1.05-2.4 2.37-2.4 1.3 0 2.36 1.07 2.36 2.4 0 1.32-1.05 2.4-2.36 2.4-1.32 0-2.38-1.08-2.38-2.4z" fill="#fff"/><path d="M525.5 345.73l-3.33 3.35 4.94 5.04v15.52l-4.93 5.05 3.32 3.33 6.55-6.7v-18.9z" fill="#fff"/><use xlink:href="#f" transform="matrix(1,0,0,1,473.33333333333326,402.90557460020045) translate(-1.2041015625 16.69921875)"/><use xlink:href="#g" transform="matrix(1,0,0,1,473.33333333333326,402.90557460020045) translate(10.6083984375 37.79296875)"/><path d="M553.83 361.9h40.4" stroke="#333" fill="none"/><path d="M553.85 362.4h-.58l.06-.5-.06-.5h.58z" stroke="#333" stroke-width=".05" fill="#333"/><path d="M609 361.9l-14.28 4.64v-9.27z" stroke="#333" fill="#333"/><path d="M763.5 361.9h40.12" stroke="#333" fill="none"/><path d="M763.5 362.4h-.53l.04-1h.5z" stroke="#333" stroke-width=".05" fill="#333"/><path d="M818.38 361.9l-14.26 4.64v-9.27z" stroke="#333" fill="#333"/><path d="M860 398.4v45.22" stroke="#333" fill="none"/><path d="M860.5 398.42h-1v-.5h1z" stroke="#333" stroke-width=".05" fill="#333"/><path d="M860 458.38l-4.64-14.26h9.28z" stroke="#333" fill="#333"/><path d="M664 608.28l-16.64-28.64c-.66-1.12-1-2.33-1-3.63 0-1.3.34-2.5 1-3.62l16.57-28.7c.64-1.15 1.54-2.05 2.67-2.7 1.13-.66 2.35-.98 3.66-.97h33.2c1.3.02 2.53.35 3.66 1 1.12.66 2.02 1.54 2.67 2.67l16.56 28.7c.67 1.12 1 2.33 1 3.64 0 1.3-.33 2.52-1 3.64l-16.57 28.7c-.66 1.13-1.56 2.02-2.68 2.67-1.13.67-2.35 1-3.65 1h-33.15c-1.3-.04-2.5-.38-3.64-1.04-1.13-.67-2.02-1.56-2.68-2.68zm0 0" fill="#0e62c2"/><path d="M694.23 560.52l-1.96 4.23-4.3-4.3-1.96 4.23-4.17-4.16-1 5.1-3.74.64-.77 3.34-4.87 1.14 4.36 4.35-4.3 1.9 4.3 4.27-4.36 1.84 28.78 28.7h3.3c1.3 0 2.52-.32 3.64-.97 1.13-.66 2.02-1.55 2.68-2.68l11.82-20.44z" fill="#0851b0"/><path d="M690.56 571.62h-7.2c-.14 0-.27.03-.4.1-.1.06-.2.15-.28.28-.06.12-.1.24-.1.38v7.2c0 .13.04.25.1.37.07.13.17.22.3.28.1.07.24.1.38.1h7.2c.2 0 .4-.08.54-.23.14-.14.23-.32.23-.53v-7.2c0-.13-.04-.25-.1-.37-.07-.13-.16-.22-.3-.28-.1-.07-.23-.1-.37-.1z" fill="#fff"/><path d="M702 571.05c.2 0 .36-.07.5-.2.14-.14.2-.3.2-.5v-1.13c0-.2-.06-.35-.2-.48-.14-.14-.3-.2-.5-.2h-3.53v-3.3c0-.13-.03-.26-.1-.38-.06-.12-.15-.2-.27-.27-.12-.08-.25-.1-.4-.1h-3.28V561c0-.2-.07-.35-.2-.5-.14-.12-.3-.2-.5-.2h-1.13c-.2 0-.37.08-.5.2-.14.15-.2.3-.2.5v3.53h-3.74v-3.53c0-.2-.07-.35-.2-.5-.14-.12-.3-.2-.5-.2h-1.13c-.2 0-.36.08-.5.2-.13.15-.2.3-.2.5v3.53h-3.73v-3.53c0-.2-.07-.35-.2-.5-.14-.12-.3-.2-.5-.2h-1.14c-.2 0-.35.08-.5.2-.12.15-.2.3-.2.5v3.53h-3.28c-.13 0-.26.03-.4.1-.1.06-.2.15-.27.28-.05.12-.1.24-.08.38v3.3h-3.48c-.2 0-.35.06-.5.2-.12.14-.2.3-.2.5v1.12c0 .2.08.35.2.5.15.13.3.2.5.2h3.48v3.6h-3.48c-.2 0-.35.06-.5.2-.12.14-.2.3-.2.5v1.12c0 .2.08.35.2.5.15.13.3.2.5.2h3.48v3.72h-3.48c-.2 0-.35.07-.5.2-.12.14-.2.3-.2.5v1.13c0 .18.08.34.2.48.15.14.3.2.5.2h3.48v3.22c0 .14.03.26.1.38.06.12.15.22.27.28.12.07.25.1.38.1h3.3V591c0 .18.06.34.2.48.13.14.3.2.48.2h1.14c.2 0 .36-.06.5-.2.13-.14.2-.3.2-.5v-3.52h3.73V591c0 .18.07.34.2.48.14.14.3.2.5.2h1.2c.2 0 .35-.06.5-.2.13-.14.2-.3.2-.5v-3.52h3.73V591c0 .18.06.34.2.48.14.14.3.2.5.2h1.13c.18 0 .34-.06.48-.2.14-.14.2-.3.2-.5v-3.52h3.3c.2 0 .38-.08.53-.23.15-.14.23-.32.23-.53v-3.28h3.54c.2 0 .36-.07.5-.2.13-.14.2-.3.2-.5v-1.13c0-.2-.07-.37-.2-.5-.14-.14-.3-.2-.5-.2h-3.54v-3.66h3.54c.2 0 .36-.07.5-.2.13-.15.2-.3.2-.5v-1.13c0-.1 0-.23-.07-.34-.05-.1-.12-.2-.23-.26-.1-.06-.2-.1-.33-.1h-3.6v-3.65zm-6.12 13.9h-17.84v-17.87h17.84zm0 0z" fill="#fff"/><use xlink:href="#h" transform="matrix(1,0,0,1,646.3673845989583,617) translate(-5.04931640625 16.69921875)"/><use xlink:href="#i" transform="matrix(1,0,0,1,646.3673845989583,617) translate(0.6240234375 37.79296875)"/><use xlink:href="#j" transform="matrix(1,0,0,1,646.3673845989583,617) translate(45.6416015625 37.79296875)"/><path d="M686.67 442.3v81.33" stroke="#333" fill="none"/><path d="M687.17 442.3h-1v-.5h1z" stroke="#333" stroke-width=".05" fill="#333"/><path d="M686.67 538.4l-4.64-14.27h9.27z" stroke="#333" fill="#333"/><path d="M840.68 666.23l-16.63-28.64c-.67-1.13-1-2.34-1-3.64 0-1.3.33-2.5 1-3.63l16.57-28.7c.64-1.14 1.53-2.04 2.66-2.7 1.13-.65 2.35-.98 3.66-.96h33.2c1.3 0 2.54.33 3.66.98 1.13.66 2.02 1.54 2.67 2.68l16.57 28.7c.67 1.12 1 2.33 1 3.63 0 1.3-.33 2.5-1 3.63l-16.57 28.7c-.65 1.13-1.54 2-2.67 2.67-1.12.65-2.35.98-3.65.98H847c-1.3-.03-2.5-.38-3.64-1.04-1.12-.65-2-1.55-2.68-2.67zm0 0" fill="#0e62c2"/><path d="M870.92 618.47l-1.96 4.23-4.3-4.3-1.97 4.23-4.18-4.16-1.02 5.1-3.73.64-.75 3.35-4.88 1.14 4.37 4.35-4.3 1.9 4.3 4.27-4.36 1.84 28.78 28.7h3.3c1.3 0 2.52-.33 3.65-.98 1.12-.66 2-1.55 2.67-2.68l11.82-20.44z" fill="#0851b0"/><path d="M867.25 629.58h-7.2c-.15 0-.28.02-.4.1-.12.05-.22.15-.28.27-.07.12-.1.24-.1.38v7.2c0 .13.03.25.1.38.06.13.16.22.28.3.12.05.25.1.4.08h7.2c.2 0 .4-.08.53-.22.15-.15.23-.33.23-.54v-7.2c.02-.13-.02-.25-.1-.37-.05-.12-.15-.22-.27-.28-.12-.07-.25-.1-.38-.1z" fill="#fff"/><path d="M878.7 629c.18 0 .35-.07.48-.2.14-.14.2-.3.2-.48v-1.14c0-.2-.06-.35-.2-.5-.13-.13-.3-.2-.5-.2h-3.53v-3.28c0-.13-.03-.26-.1-.4-.06-.1-.15-.2-.27-.26-.12-.06-.25-.1-.4-.1h-3.28V619c0-.2-.06-.36-.2-.5-.14-.13-.3-.2-.5-.2h-1.13c-.2 0-.36.07-.5.2-.13.14-.2.3-.2.5v3.53h-3.73V619c0-.2-.06-.36-.2-.5-.14-.13-.3-.2-.5-.2H863c-.18 0-.35.07-.48.2-.14.14-.2.3-.2.5v3.53h-3.74V619c0-.2-.06-.36-.2-.5-.14-.13-.3-.2-.5-.2h-1.14c-.2 0-.35.07-.48.2-.14.14-.2.3-.2.5v3.53h-3.3c-.13 0-.26.03-.38.1-.13.06-.22.16-.3.28-.05.12-.08.24-.08.38v3.28h-3.48c-.2 0-.35.08-.48.2-.14.15-.22.3-.22.5v1.13c0 .2.08.36.22.5.13.13.3.2.48.2H852v3.6h-3.48c-.2 0-.35.07-.48.2-.14.14-.22.3-.22.5v1.12c0 .2.08.35.22.48.13.14.3.2.48.2H852v3.73h-3.48c-.2 0-.35.08-.48.22-.14.13-.22.3-.22.5v1.12c0 .2.08.36.22.5.13.13.3.2.48.2H852v3.2c0 .15.03.27.1.4.06.12.15.2.28.27.12.08.25.12.4.1h3.27v3.54c0 .2.07.36.2.5.14.13.3.2.5.2h1.13c.2 0 .36-.07.5-.2.14-.14.2-.3.2-.5v-3.53h3.73v3.54c0 .2.08.36.22.5.13.13.3.2.5.2h1.2c.18 0 .35-.07.48-.2.14-.14.2-.3.2-.5v-3.53h3.74v3.54c0 .2.06.36.2.5.14.13.3.2.5.2h1.13c.2 0 .36-.07.5-.2.13-.14.2-.3.2-.5v-3.53h3.28c.22 0 .4-.07.54-.2.13-.16.22-.34.22-.55v-3.28h3.54c.2 0 .35-.07.5-.2.13-.14.2-.3.2-.5v-1.13c0-.2-.07-.35-.2-.5-.15-.13-.3-.2-.5-.2h-3.54v-3.65h3.54c.2 0 .35-.08.5-.22.13-.13.2-.3.2-.5v-1.12c0-.12-.02-.23-.07-.34-.07-.1-.14-.2-.25-.26-.1-.07-.2-.1-.33-.1h-3.6V629zm-6.14 13.9h-17.83v-17.87h17.83zm0 0z" fill="#fff"/><g><use xlink:href="#k" transform="matrix(1,0,0,1,823.04931640625,674.953125) translate(9.92724609375 16.69921875)"/><use xlink:href="#i" transform="matrix(1,0,0,1,823.04931640625,674.953125) translate(0.6240234375 37.79296875)"/><use xlink:href="#j" transform="matrix(1,0,0,1,823.04931640625,674.953125) translate(45.6416015625 37.79296875)"/></g><path d="M860.5 536.52v45.06" stroke="#333" fill="none"/><path d="M861 536.53h-1v-.5h1z" stroke="#333" stroke-width=".05" fill="#333"/><path d="M860.5 596.35l-4.64-14.27h9.27z" stroke="#333" fill="#333"/><defs><path fill="#333" d="M30 0v-248h187v28H63v79h144v27H63v87h162V0H30" id="l"/><path fill="#333" d="M108 0H70L1-190h34L89-25l56-165h34" id="m"/><path fill="#333" d="M100-194c63 0 86 42 84 106H49c0 40 14 67 53 68 26 1 43-12 49-29l28 8c-11 28-37 45-77 45C44 4 14-33 15-96c1-61 26-98 85-98zm52 81c6-60-76-77-97-28-3 7-6 17-6 28h103" id="n"/><path fill="#333" d="M117-194c89-4 53 116 60 194h-32v-121c0-31-8-49-39-48C34-167 62-67 57 0H25l-1-190h30c1 10-1 24 2 32 11-22 29-35 61-36" id="o"/><path fill="#333" d="M59-47c-2 24 18 29 38 22v24C64 9 27 4 27-40v-127H5v-23h24l9-43h21v43h35v23H59v120" id="p"/><path fill="#333" d="M185-189c-5-48-123-54-124 2 14 75 158 14 163 119 3 78-121 87-175 55-17-10-28-26-33-46l33-7c5 56 141 63 141-1 0-78-155-14-162-118-5-82 145-84 179-34 5 7 8 16 11 25" id="q"/><path fill="#333" d="M100-194c62-1 85 37 85 99 1 63-27 99-86 99S16-35 15-95c0-66 28-99 85-99zM99-20c44 1 53-31 53-75 0-43-8-75-51-75s-53 32-53 75 10 74 51 75" id="r"/><path fill="#333" d="M114-163C36-179 61-72 57 0H25l-1-190h30c1 12-1 29 2 39 6-27 23-49 58-41v29" id="s"/><g id="a"><use transform="matrix(0.05,0,0,0.05,0,0)" xlink:href="#l"/><use transform="matrix(0.05,0,0,0.05,12,0)" xlink:href="#m"/><use transform="matrix(0.05,0,0,0.05,21,0)" xlink:href="#n"/><use transform="matrix(0.05,0,0,0.05,31,0)" xlink:href="#o"/><use transform="matrix(0.05,0,0,0.05,41,0)" xlink:href="#p"/><use transform="matrix(0.05,0,0,0.05,46,0)" xlink:href="#q"/><use transform="matrix(0.05,0,0,0.05,58,0)" xlink:href="#p"/><use transform="matrix(0.05,0,0,0.05,63,0)" xlink:href="#r"/><use transform="matrix(0.05,0,0,0.05,73,0)" xlink:href="#s"/><use transform="matrix(0.05,0,0,0.05,78.95,0)" xlink:href="#n"/></g><path fill="#333" d="M30-248c118-7 216 8 213 122C240-48 200 0 122 0H30v-248zM63-27c89 8 146-16 146-99s-60-101-146-95v194" id="t"/><path fill="#333" d="M160-131c35 5 61 23 61 61C221 17 115-2 30 0v-248c76 3 177-17 177 60 0 33-19 50-47 57zm-97-11c50-1 110 9 110-42 0-47-63-36-110-37v79zm0 115c55-2 124 14 124-45 0-56-70-42-124-44v89" id="u"/><g id="b"><use transform="matrix(0.05,0,0,0.05,0,0)" xlink:href="#t"/><use transform="matrix(0.05,0,0,0.05,12.950000000000001,0)" xlink:href="#u"/></g><path d="M973-380H363L226 0H28l556-1456h168L1309 0h-197zM421-538h495l-248-681" id="v"/><path d="M521 20C240 20 96-239 96-550c0-303 147-552 427-552 132 0 235 47 309 140l9-120h169V-26c4 277-183 454-459 452-165-1-334-81-400-187l96-111c79 98 176 147 291 147 180 1 288-109 286-290v-93C750-23 649 20 521 20zm48-965c-209 0-287 178-287 416 0 217 86 392 285 392 117 0 202-53 257-159v-494c-57-103-142-155-255-155" id="w"/><path d="M663-916c-163-27-288 18-338 148V0H140v-1082h180l3 125c61-97 147-145 258-145 36 0 63 5 82 14v172" id="x"/><path d="M599-131c141 0 220-65 285-146l113 88C906-50 770 20 589 20 281 21 93-214 93-545c0-223 93-397 233-485 74-48 154-72 240-72 300 2 449 218 445 537v77H278c0 197 129 357 321 357zm227-509c-3-180-88-310-260-310-170 0-264 140-282 310h542" id="y"/><path d="M561-1102c238-4 403 126 403 351v498c0 99 13 178 38 237V0H808c-11-21-19-59-26-114C696-25 593 20 474 20c-199 0-368-130-365-320 4-251 214-359 490-356h180v-85c-1-135-86-212-229-212-115 0-232 67-233 171H131c20-205 206-316 430-320zM294-326c0 117 90 185 207 185 122 0 239-75 278-162v-222H634c-227 0-340 66-340 199" id="z"/><path d="M456 20C285 20 205-92 206-268v-671H9v-143h197v-262h185v262h202v143H391v671c-9 125 92 149 207 118V0c-49 13-96 20-142 20" id="A"/><path d="M584 20C278 26 81-227 91-551c10-320 175-545 491-551 308-5 503 247 494 573-9 322-175 543-492 549zm-2-970c-208 0-305 185-305 421 0 216 106 398 307 398 211 0 307-186 307-420 0-214-109-399-309-399" id="B"/><g id="c"><use transform="matrix(0.0087890625,0,0,0.0087890625,0,0)" xlink:href="#v"/><use transform="matrix(0.0087890625,0,0,0.0087890625,11.7421875,0)" xlink:href="#w"/><use transform="matrix(0.0087890625,0,0,0.0087890625,21.8408203125,0)" xlink:href="#w"/><use transform="matrix(0.0087890625,0,0,0.0087890625,31.939453125,0)" xlink:href="#x"/><use transform="matrix(0.0087890625,0,0,0.0087890625,37.86328125,0)" xlink:href="#y"/><use transform="matrix(0.0087890625,0,0,0.0087890625,47.3994140625,0)" xlink:href="#w"/><use transform="matrix(0.0087890625,0,0,0.0087890625,57.498046875,0)" xlink:href="#z"/><use transform="matrix(0.0087890625,0,0,0.0087890625,67.2890625,0)" xlink:href="#A"/><use transform="matrix(0.0087890625,0,0,0.0087890625,72.9931640625,0)" xlink:href="#B"/><use transform="matrix(0.0087890625,0,0,0.0087890625,83.2587890625,0)" xlink:href="#x"/></g><path fill="#333" d="M30-248c87 1 191-15 191 75 0 78-77 80-158 76V0H30v-248zm33 125c57 0 124 11 124-50 0-59-68-47-124-48v98" id="C"/><path fill="#333" d="M24-231v-30h32v30H24zM-9 49c24 4 33-6 33-30v-209h32V24c2 40-23 58-65 49V49" id="D"/><path fill="#333" d="M96-169c-40 0-48 33-48 73s9 75 48 75c24 0 41-14 43-38l32 2c-6 37-31 61-74 61-59 0-76-41-82-99-10-93 101-131 147-64 4 7 5 14 7 22l-32 3c-4-21-16-35-41-35" id="E"/><path fill="#333" d="M24-231v-30h32v30H24zM24 0v-190h32V0H24" id="F"/><g id="d"><use transform="matrix(0.05,0,0,0.05,0,0)" xlink:href="#C"/><use transform="matrix(0.05,0,0,0.05,12,0)" xlink:href="#s"/><use transform="matrix(0.05,0,0,0.05,17.95,0)" xlink:href="#r"/><use transform="matrix(0.05,0,0,0.05,27.950000000000003,0)" xlink:href="#D"/><use transform="matrix(0.05,0,0,0.05,31.899999999999995,0)" xlink:href="#n"/><use transform="matrix(0.05,0,0,0.05,41.9,0)" xlink:href="#E"/><use transform="matrix(0.05,0,0,0.05,50.9,0)" xlink:href="#p"/><use transform="matrix(0.05,0,0,0.05,55.900000000000006,0)" xlink:href="#F"/><use transform="matrix(0.05,0,0,0.05,59.85,0)" xlink:href="#r"/><use transform="matrix(0.05,0,0,0.05,69.85,0)" xlink:href="#o"/></g><path fill="#333" d="M135-143c-3-34-86-38-87 0 15 53 115 12 119 90S17 21 10-45l28-5c4 36 97 45 98 0-10-56-113-15-118-90-4-57 82-63 122-42 12 7 21 19 24 35" id="G"/><g id="e"><use transform="matrix(0.05,0,0,0.05,0,0)" xlink:href="#G"/><use transform="matrix(0.05,0,0,0.05,9,0)" xlink:href="#p"/><use transform="matrix(0.05,0,0,0.05,14,0)" xlink:href="#r"/><use transform="matrix(0.05,0,0,0.05,24,0)" xlink:href="#s"/><use transform="matrix(0.05,0,0,0.05,29.950000000000003,0)" xlink:href="#n"/></g><path d="M688-137c238 0 323-102 359-325h193c-32 297-228 482-552 482-361 0-569-299-569-680 0-197 8-360 73-497 88-186 257-317 513-319 316-2 509 195 535 488h-193c-31-212-118-330-342-330-272 0-397 224-393 523v141c-3 282 115 517 376 517" id="H"/><path d="M1240-945c-141 0-250 95-250 227V0H804v-709c0-157-77-236-231-236-121 0-204 52-249 155V0H139v-1082h175l5 120c79-93 186-140 321-140 151 0 254 58 309 174 69-98 181-174 345-174 237 0 362 126 362 377V0h-185v-714c-2-159-67-231-231-231" id="I"/><path d="M589-945c-131 0-219 81-264 174V0H140v-1082h175l6 136c83-104 191-156 324-156 229 0 346 129 346 387V0H806v-716c-2-153-65-229-217-229" id="J"/><path d="M520 20C244 20 95-247 95-550c0-298 151-550 427-552 127 0 227 43 301 130v-564h185V0H838l-9-116C755-25 652 20 520 20zm48-965c-210 0-288 177-288 416 0 218 87 392 286 392 117 0 203-53 257-158v-497c-55-102-140-153-255-153" id="K"/><g id="f"><use transform="matrix(0.0087890625,0,0,0.0087890625,0,0)" xlink:href="#H"/><use transform="matrix(0.0087890625,0,0,0.0087890625,11.7158203125,0)" xlink:href="#B"/><use transform="matrix(0.0087890625,0,0,0.0087890625,21.9814453125,0)" xlink:href="#I"/><use transform="matrix(0.0087890625,0,0,0.0087890625,37.7578125,0)" xlink:href="#I"/><use transform="matrix(0.0087890625,0,0,0.0087890625,53.5341796875,0)" xlink:href="#z"/><use transform="matrix(0.0087890625,0,0,0.0087890625,63.3251953125,0)" xlink:href="#J"/><use transform="matrix(0.0087890625,0,0,0.0087890625,73.2568359375,0)" xlink:href="#K"/></g><path d="M589-945c-131 0-219 81-264 174V0H140v-1536h185v585c82-101 189-151 320-151 229 0 346 129 346 387V0H806v-716c-2-153-65-229-217-229" id="L"/><path d="M341 0H156v-1536h185V0" id="M"/><g id="g"><use transform="matrix(0.0087890625,0,0,0.0087890625,0,0)" xlink:href="#L"/><use transform="matrix(0.0087890625,0,0,0.0087890625,9.9140625,0)" xlink:href="#z"/><use transform="matrix(0.0087890625,0,0,0.0087890625,19.705078125,0)" xlink:href="#J"/><use transform="matrix(0.0087890625,0,0,0.0087890625,29.63671875,0)" xlink:href="#K"/><use transform="matrix(0.0087890625,0,0,0.0087890625,39.7880859375,0)" xlink:href="#M"/><use transform="matrix(0.0087890625,0,0,0.0087890625,44.15625,0)" xlink:href="#y"/><use transform="matrix(0.0087890625,0,0,0.0087890625,53.6923828125,0)" xlink:href="#x"/></g><path d="M631-137c179 0 314-70 314-231 0-71-25-127-75-166s-141-77-272-115c-165-47-285-106-360-175s-112-154-112-255c0-245 231-397 495-397 206 0 369 89 449 218 43 68 65 142 65 223H942c0-184-129-283-321-283-172 0-299 76-301 236 0 59 26 109 76 150s135 78 256 113c205 59 345 116 436 256 35 53 50 119 50 193-2 256-231 398-507 390C333 12 90-129 80-422h193c0 187 160 285 358 285" id="N"/><path d="M632-1102c291 0 422 251 422 573 0 297-141 548-419 549-131 0-235-42-310-125v521H140v-1498h169l9 120c75-93 180-140 314-140zm-53 971c207 0 290-180 290-419 0-218-92-395-292-395-112 0-196 50-252 149v517c55 99 140 148 254 148" id="O"/><path d="M277-555c0 244 77 420 297 424 127 2 249-93 255-210h175C980-127 805 20 574 20 258 20 81-222 92-562c11-319 164-533 481-540 237-5 426 165 431 392H829c-7-133-115-242-256-240-209 4-296 166-296 395" id="P"/><path d="M341 0H156v-1082h185V0zm-91-1264c-68 0-108-42-109-105 0-62 41-107 109-107s110 44 110 107-42 105-110 105" id="Q"/><path d="M314-151h633V0H88v-136l597-793H97v-153h820v131" id="R"/><g id="h"><use transform="matrix(0.0087890625,0,0,0.0087890625,0,0)" xlink:href="#N"/><use transform="matrix(0.0087890625,0,0,0.0087890625,10.6787109375,0)" xlink:href="#O"/><use transform="matrix(0.0087890625,0,0,0.0087890625,20.77734375,0)" xlink:href="#y"/><use transform="matrix(0.0087890625,0,0,0.0087890625,30.3134765625,0)" xlink:href="#P"/><use transform="matrix(0.0087890625,0,0,0.0087890625,39.7353515625,0)" xlink:href="#Q"/><use transform="matrix(0.0087890625,0,0,0.0087890625,44.103515625,0)" xlink:href="#z"/><use transform="matrix(0.0087890625,0,0,0.0087890625,53.89453125,0)" xlink:href="#M"/><use transform="matrix(0.0087890625,0,0,0.0087890625,58.2626953125,0)" xlink:href="#Q"/><use transform="matrix(0.0087890625,0,0,0.0087890625,62.630859375,0)" xlink:href="#R"/><use transform="matrix(0.0087890625,0,0,0.0087890625,71.4111328125,0)" xlink:href="#y"/><use transform="matrix(0.0087890625,0,0,0.0087890625,80.947265625,0)" xlink:href="#K"/></g><path d="M1161-1018c0 201-122 330-278 388l342 618V0h-206L703-589H361V0H168v-1456h482c310-2 511 139 511 438zm-193 0c0-187-120-280-313-280H361v552h295c179 3 313-101 312-272" id="S"/><g id="i"><use transform="matrix(0.0087890625,0,0,0.0087890625,0,0)" xlink:href="#S"/><use transform="matrix(0.0087890625,0,0,0.0087890625,11.0830078125,0)" xlink:href="#y"/><use transform="matrix(0.0087890625,0,0,0.0087890625,20.619140625,0)" xlink:href="#z"/><use transform="matrix(0.0087890625,0,0,0.0087890625,30.41015625,0)" xlink:href="#K"/></g><g id="j"><use transform="matrix(0.0087890625,0,0,0.0087890625,0,0)" xlink:href="#N"/><use transform="matrix(0.0087890625,0,0,0.0087890625,10.6787109375,0)" xlink:href="#Q"/><use transform="matrix(0.0087890625,0,0,0.0087890625,15.046875,0)" xlink:href="#K"/><use transform="matrix(0.0087890625,0,0,0.0087890625,25.1982421875,0)" xlink:href="#y"/></g><path d="M730-137c145 0 253-29 323-105v-327H716v-156h528v534C1148-51 964 20 729 20c-394 0-598-279-607-678v-127c-5-410 194-690 585-691 310-1 499 171 537 447h-192c-36-193-151-289-344-289-285 0-393 220-393 528v119c-5 296 140 534 415 534" id="T"/><g id="k"><use transform="matrix(0.0087890625,0,0,0.0087890625,0,0)" xlink:href="#T"/><use transform="matrix(0.0087890625,0,0,0.0087890625,12.2607421875,0)" xlink:href="#y"/><use transform="matrix(0.0087890625,0,0,0.0087890625,21.796875,0)" xlink:href="#J"/><use transform="matrix(0.0087890625,0,0,0.0087890625,31.728515625,0)" xlink:href="#y"/><use transform="matrix(0.0087890625,0,0,0.0087890625,41.2646484375,0)" xlink:href="#x"/><use transform="matrix(0.0087890625,0,0,0.0087890625,47.35546875,0)" xlink:href="#Q"/><use transform="matrix(0.0087890625,0,0,0.0087890625,51.7236328125,0)" xlink:href="#P"/></g></defs></g></svg>